<svg xmlns="http://www.w3.org/2000/svg" xmlns:xlink="http://www.w3.org/1999/xlink" version="1.1" id="Capa_1" x="0px" y="0px" viewBox="0 0 60.001 60.001" style="enable-background:new 0 0 60.001 60.001;" xml:space="preserve">
<g>
	<path style="fill: #fff;" d="M30.025,60.001c-0.013,0-0.028,0-0.045-0.001c-0.334,0-0.667-0.006-0.999-0.018   c-0.552-0.018-0.984-0.479-0.966-1.032c0.019-0.551,0.48-0.979,1.032-0.966C29.363,57.994,29.681,58,30.001,58l0.11,0.006   c0.553,0,0.957,0.445,0.957,0.998C31.068,59.556,30.578,60.001,30.025,60.001z M34.058,59.719c-0.491,0-0.919-0.361-0.989-0.861   c-0.076-0.547,0.305-1.053,0.852-1.129c0.323-0.045,0.645-0.096,0.964-0.152c0.541-0.103,1.062,0.267,1.158,0.811   c0.097,0.543-0.267,1.063-0.811,1.158c-0.343,0.061-0.688,0.115-1.034,0.164C34.151,59.716,34.104,59.719,34.058,59.719z    M24.993,59.568c-0.057,0-0.114-0.005-0.172-0.015c-0.345-0.06-0.688-0.125-1.028-0.197c-0.54-0.114-0.887-0.645-0.772-1.185   s0.645-0.886,1.185-0.772c0.317,0.066,0.637,0.128,0.958,0.184c0.544,0.094,0.908,0.611,0.814,1.156   C25.893,59.226,25.47,59.568,24.993,59.568z M38.981,58.583c-0.422,0-0.813-0.269-0.951-0.69c-0.171-0.525,0.116-1.09,0.642-1.261   c0.311-0.101,0.619-0.207,0.925-0.318c0.517-0.189,1.093,0.079,1.281,0.598c0.189,0.519-0.078,1.093-0.598,1.281   c-0.327,0.119-0.657,0.233-0.989,0.342C39.187,58.567,39.084,58.583,38.981,58.583z M20.107,58.269   c-0.113,0-0.228-0.019-0.341-0.06c-0.33-0.119-0.657-0.245-0.981-0.377c-0.513-0.207-0.759-0.79-0.552-1.302   c0.207-0.513,0.79-0.76,1.302-0.552c0.303,0.122,0.606,0.238,0.913,0.35c0.519,0.188,0.787,0.762,0.6,1.281   C20.9,58.016,20.516,58.269,20.107,58.269z M43.631,56.605c-0.358,0-0.704-0.192-0.884-0.531c-0.26-0.487-0.074-1.093,0.414-1.352   c0.286-0.152,0.569-0.311,0.85-0.474c0.479-0.273,1.091-0.113,1.367,0.363c0.277,0.478,0.114,1.09-0.363,1.367   c-0.302,0.175-0.606,0.345-0.916,0.509C43.95,56.567,43.79,56.605,43.631,56.605z M15.522,56.134c-0.17,0-0.341-0.043-0.499-0.134   c-0.303-0.175-0.602-0.354-0.897-0.539c-0.469-0.293-0.611-0.91-0.319-1.378c0.293-0.469,0.911-0.61,1.378-0.319   c0.276,0.173,0.556,0.341,0.839,0.504c0.478,0.275,0.643,0.888,0.366,1.366C16.204,55.954,15.868,56.134,15.522,56.134z    M47.863,53.849c-0.297,0-0.591-0.132-0.788-0.384c-0.341-0.435-0.265-1.063,0.171-1.403c0.256-0.201,0.509-0.405,0.758-0.615   c0.423-0.355,1.053-0.301,1.409,0.122c0.355,0.423,0.301,1.054-0.122,1.409c-0.267,0.224-0.537,0.443-0.813,0.658   C48.295,53.779,48.079,53.849,47.863,53.849z M11.38,53.234c-0.227,0-0.454-0.076-0.642-0.233   c-0.268-0.225-0.532-0.454-0.791-0.688c-0.41-0.37-0.442-1.002-0.072-1.412c0.371-0.411,1.002-0.441,1.412-0.072   c0.241,0.217,0.486,0.431,0.736,0.64c0.423,0.354,0.479,0.985,0.124,1.409C11.95,53.112,11.667,53.234,11.38,53.234z    M51.554,50.402c-0.24,0-0.48-0.086-0.672-0.259c-0.409-0.371-0.44-1.004-0.069-1.413c0.218-0.24,0.432-0.485,0.64-0.734   c0.355-0.422,0.985-0.479,1.409-0.124c0.423,0.354,0.479,0.985,0.124,1.409c-0.226,0.269-0.455,0.533-0.69,0.793   C52.098,50.292,51.827,50.402,51.554,50.402z M7.805,49.665c-0.285,0-0.568-0.121-0.767-0.356   c-0.224-0.267-0.444-0.537-0.659-0.813c-0.341-0.435-0.265-1.063,0.171-1.403c0.434-0.341,1.063-0.265,1.403,0.171   c0.201,0.256,0.406,0.509,0.616,0.758c0.355,0.423,0.301,1.054-0.122,1.409C8.26,49.588,8.032,49.665,7.805,49.665z M54.597,46.368   c-0.182,0-0.365-0.05-0.531-0.153c-0.468-0.294-0.608-0.911-0.314-1.379c0.173-0.275,0.34-0.554,0.503-0.836   c0.276-0.479,0.886-0.642,1.366-0.366c0.478,0.275,0.643,0.888,0.366,1.366c-0.175,0.304-0.355,0.604-0.542,0.9   C55.255,46.202,54.93,46.368,54.597,46.368z M4.9,45.534c-0.345,0-0.681-0.179-0.866-0.498c-0.175-0.302-0.345-0.606-0.509-0.916   c-0.26-0.487-0.074-1.093,0.414-1.352c0.487-0.263,1.093-0.075,1.352,0.414c0.152,0.286,0.311,0.569,0.474,0.85   c0.277,0.478,0.114,1.09-0.363,1.367C5.243,45.49,5.07,45.534,4.9,45.534z M56.896,41.864c-0.125,0-0.252-0.023-0.375-0.073   c-0.513-0.207-0.759-0.79-0.552-1.302c0.122-0.303,0.239-0.607,0.352-0.915c0.189-0.519,0.765-0.785,1.282-0.597   c0.519,0.189,0.786,0.764,0.597,1.282c-0.12,0.329-0.245,0.655-0.377,0.979C57.666,41.629,57.291,41.864,56.896,41.864z    M2.756,40.961c-0.408,0-0.792-0.252-0.939-0.658c-0.119-0.326-0.232-0.654-0.342-0.986c-0.172-0.524,0.113-1.09,0.639-1.262   c0.525-0.171,1.089,0.113,1.262,0.639c0.102,0.311,0.209,0.619,0.32,0.926c0.189,0.519-0.078,1.093-0.598,1.281   C2.986,40.941,2.87,40.961,2.756,40.961z M58.376,37.026c-0.067,0-0.136-0.007-0.204-0.021c-0.541-0.112-0.889-0.643-0.776-1.183   c0.066-0.319,0.129-0.641,0.186-0.963c0.097-0.544,0.615-0.903,1.158-0.813c0.544,0.096,0.908,0.614,0.813,1.158   c-0.061,0.344-0.127,0.685-0.197,1.023C59.255,36.702,58.839,37.026,58.376,37.026z M1.443,36.082   c-0.477,0-0.897-0.341-0.983-0.826c-0.061-0.342-0.115-0.686-0.165-1.031c-0.078-0.547,0.302-1.054,0.849-1.132   c0.546-0.082,1.054,0.302,1.132,0.849c0.046,0.324,0.097,0.646,0.153,0.967c0.097,0.543-0.267,1.063-0.811,1.158   C1.559,36.077,1.501,36.082,1.443,36.082z M58.984,32.012c-0.012,0-0.024,0-0.036-0.001c-0.552-0.019-0.983-0.481-0.964-1.034   c0.011-0.324,0.017-0.649,0.017-0.977L58,29.894c0-0.553,0.447-1,1-1s1,0.447,1,1l0.001,0.079c0,0.378-0.006,0.727-0.019,1.074   C59.963,31.587,59.52,32.012,58.984,32.012z M1.001,31.024c-0.553,0-1-0.423-1-0.976V30c0-0.334,0.005-0.665,0.017-0.995   c0.018-0.553,0.521-1.015,1.032-0.966c0.553,0.019,0.984,0.48,0.966,1.032C2.005,29.38,2.001,29.689,2.001,30   C2.001,30.553,1.553,31.024,1.001,31.024z M58.707,26.861c-0.49,0-0.918-0.359-0.989-0.858c-0.046-0.323-0.098-0.645-0.155-0.964   c-0.098-0.543,0.264-1.063,0.808-1.161c0.539-0.098,1.063,0.264,1.161,0.808c0.062,0.343,0.117,0.688,0.167,1.034   c0.078,0.547-0.302,1.054-0.849,1.132C58.801,26.858,58.753,26.861,58.707,26.861z M1.428,26.016c-0.057,0-0.113-0.005-0.172-0.015   c-0.544-0.094-0.908-0.611-0.814-1.156c0.06-0.344,0.125-0.686,0.195-1.026c0.111-0.541,0.642-0.885,1.183-0.776   c0.54,0.112,0.888,0.642,0.776,1.183c-0.066,0.319-0.128,0.64-0.184,0.962C2.329,25.673,1.906,26.016,1.428,26.016z M57.558,21.942   c-0.421,0-0.812-0.267-0.95-0.688c-0.102-0.31-0.209-0.617-0.321-0.923c-0.19-0.519,0.075-1.093,0.594-1.283   c0.518-0.191,1.093,0.076,1.283,0.594c0.12,0.327,0.235,0.656,0.345,0.989c0.172,0.524-0.113,1.09-0.639,1.262   C57.766,21.927,57.662,21.942,57.558,21.942z M2.724,21.129c-0.113,0-0.228-0.019-0.341-0.06c-0.519-0.188-0.787-0.762-0.6-1.281   c0.119-0.329,0.244-0.656,0.375-0.98c0.205-0.513,0.79-0.76,1.301-0.555c0.513,0.206,0.761,0.788,0.555,1.301   c-0.121,0.303-0.238,0.608-0.35,0.916C3.517,20.876,3.133,21.129,2.724,21.129z M55.569,17.302c-0.355,0-0.7-0.19-0.881-0.525   c-0.155-0.287-0.314-0.572-0.479-0.854c-0.277-0.478-0.114-1.09,0.363-1.367c0.48-0.275,1.09-0.113,1.367,0.363   c0.174,0.3,0.343,0.603,0.508,0.909c0.263,0.486,0.081,1.093-0.405,1.354C55.892,17.264,55.729,17.302,55.569,17.302z    M4.854,16.544c-0.17,0-0.341-0.043-0.499-0.134c-0.478-0.275-0.643-0.888-0.366-1.366c0.175-0.302,0.354-0.602,0.537-0.896   c0.292-0.471,0.908-0.612,1.377-0.322c0.47,0.292,0.613,0.908,0.322,1.377c-0.172,0.277-0.341,0.558-0.504,0.842   C5.536,16.364,5.2,16.544,4.854,16.544z M52.802,13.078c-0.297,0-0.591-0.132-0.788-0.384c-0.2-0.256-0.405-0.507-0.615-0.755   c-0.356-0.422-0.304-1.053,0.118-1.409c0.422-0.359,1.055-0.304,1.409,0.118c0.226,0.268,0.446,0.538,0.662,0.813   c0.341,0.435,0.265,1.063-0.171,1.403C53.235,13.009,53.018,13.078,52.802,13.078z M7.749,12.399c-0.227,0-0.454-0.076-0.642-0.233   c-0.423-0.354-0.479-0.985-0.124-1.409c0.225-0.268,0.452-0.531,0.686-0.791C8.041,9.557,8.67,9.524,9.082,9.891   c0.41,0.369,0.444,1.002,0.075,1.413c-0.218,0.242-0.432,0.488-0.641,0.738C8.318,12.277,8.035,12.399,7.749,12.399z M49.344,9.395   c-0.238,0-0.477-0.084-0.667-0.255c-0.244-0.219-0.49-0.432-0.741-0.642c-0.423-0.354-0.479-0.985-0.124-1.409   c0.355-0.421,0.985-0.479,1.409-0.124c0.267,0.224,0.53,0.452,0.79,0.685c0.411,0.368,0.446,1.001,0.078,1.412   C49.892,9.282,49.619,9.395,49.344,9.395z M11.317,8.82c-0.285,0-0.568-0.121-0.767-0.356c-0.355-0.423-0.301-1.054,0.122-1.409   c0.267-0.224,0.536-0.443,0.81-0.658c0.437-0.343,1.064-0.265,1.404,0.168c0.342,0.435,0.266,1.063-0.168,1.404   c-0.256,0.201-0.51,0.407-0.759,0.617C11.772,8.743,11.543,8.82,11.317,8.82z M45.3,6.36c-0.18,0-0.362-0.049-0.526-0.15   c-0.277-0.172-0.558-0.341-0.842-0.504c-0.478-0.275-0.643-0.888-0.366-1.366c0.276-0.478,0.885-0.642,1.366-0.366   c0.302,0.175,0.602,0.354,0.896,0.537c0.47,0.292,0.613,0.908,0.322,1.377C45.961,6.193,45.634,6.36,45.3,6.36z M15.446,5.912   c-0.345,0-0.681-0.179-0.866-0.498c-0.277-0.478-0.114-1.09,0.363-1.367c0.301-0.174,0.604-0.344,0.911-0.508   c0.487-0.263,1.094-0.078,1.354,0.408c0.262,0.487,0.078,1.093-0.408,1.354c-0.287,0.154-0.571,0.313-0.853,0.477   C15.789,5.868,15.616,5.912,15.446,5.912z M40.793,4.075c-0.124,0-0.251-0.023-0.373-0.072c-0.303-0.121-0.608-0.237-0.916-0.349   c-0.519-0.188-0.787-0.762-0.6-1.281c0.188-0.519,0.759-0.79,1.281-0.6c0.329,0.119,0.656,0.243,0.98,0.374   c0.513,0.206,0.761,0.788,0.555,1.301C41.565,3.838,41.189,4.075,40.793,4.075z M20.013,3.766c-0.407,0-0.79-0.251-0.938-0.655   c-0.19-0.519,0.075-1.093,0.594-1.283c0.327-0.12,0.656-0.234,0.989-0.344c0.526-0.173,1.089,0.113,1.262,0.639   c0.172,0.524-0.113,1.09-0.639,1.262c-0.31,0.102-0.617,0.208-0.923,0.32C20.245,3.746,20.127,3.766,20.013,3.766z M35.952,2.61   c-0.066,0-0.134-0.007-0.201-0.021c-0.32-0.065-0.642-0.127-0.965-0.183c-0.544-0.094-0.908-0.611-0.814-1.156   c0.095-0.544,0.605-0.906,1.156-0.814c0.343,0.06,0.684,0.125,1.023,0.194c0.541,0.11,0.89,0.639,0.779,1.18   C36.834,2.284,36.418,2.61,35.952,2.61z M24.889,2.449c-0.477,0-0.897-0.341-0.983-0.826c-0.097-0.543,0.267-1.063,0.811-1.158   c0.342-0.061,0.686-0.116,1.031-0.166c0.547-0.08,1.054,0.302,1.132,0.849s-0.302,1.054-0.849,1.132   c-0.324,0.046-0.646,0.098-0.967,0.154C25.005,2.444,24.947,2.449,24.889,2.449z M30.935,2.015c-0.011,0-0.021,0-0.032-0.001   C30.603,2.005,30.302,2,30.001,2c-0.553,0-1.039-0.447-1.039-0.999c0-0.553,0.408-1,0.961-1v1l0.04-1   c0.353-0.004,0.684,0.004,1.003,0.015c0.553,0.017,0.985,0.479,0.968,1.03C31.917,1.588,31.472,2.015,30.935,2.015z"/>
</g>
    <g>
</g>
    <g>
</g>
    <g>
</g>
    <g>
</g>
    <g>
</g>
    <g>
</g>
    <g>
</g>
    <g>
</g>
    <g>
</g>
    <g>
</g>
    <g>
</g>
    <g>
</g>
    <g>
</g>
    <g>
</g>
    <g>
</g>
</svg>
