<svg xmlns="http://www.w3.org/2000/svg" id="Icons" height="512" viewBox="0 0 74 74" width="512" style="&#10;    fill: #fe554e;&#10;"><path d="m37 72a35 35 0 1 1 35-35 35.04 35.04 0 0 1 -35 35zm0-68a33 33 0 1 0 33 33 33.038 33.038 0 0 0 -33-33z"/><path d="m57.229 54.32a1 1 0 0 1 -.779-1.626 22.81 22.81 0 0 0 1.726-2.433 1 1 0 1 1 1.709 1.039 24.765 24.765 0 0 1 -1.874 2.647 1 1 0 0 1 -.782.373z"/><path d="m37 64a27 27 0 1 1 27-27 26.6 26.6 0 0 1 -.821 6.6 1 1 0 0 1 -1.938-.5 24.564 24.564 0 0 0 .759-6.1 25 25 0 1 0 -25 25 24.657 24.657 0 0 0 5.622-.644 1 1 0 0 1 .455 1.948 26.691 26.691 0 0 1 -6.077.696z"/><path d="m49.641 60.71a1 1 0 0 1 -.485-1.876 23.063 23.063 0 0 0 2.359-1.5 1 1 0 0 1 1.17 1.622 25.282 25.282 0 0 1 -2.562 1.624.99.99 0 0 1 -.482.13z"/><path d="m31.578 46.5a1 1 0 0 1 -.707-.293l-6.156-6.156a1 1 0 0 1 1.414-1.414l5.449 5.449 16.293-16.293a1 1 0 1 1 1.414 1.414l-17 17a1 1 0 0 1 -.707.293z"/></svg>
