<svg xmlns="http://www.w3.org/2000/svg" id="Capa_1" enable-background="new 0 0 512 512" height="512" viewBox="0 0 512 512" width="512" style="&#10;    fill: #5f6162;&#10;"><g><g><path d="m91 407c0 4.142 3.358 7.5 7.5 7.5h35c4.142 0 7.5-3.358 7.5-7.5v-35c0-4.142-3.358-7.5-7.5-7.5h-35c-4.142 0-7.5 3.358-7.5 7.5zm15-27.5h20v20h-20z"/></g><g><path d="m98.5 344.5h35c4.142 0 7.5-3.358 7.5-7.5v-35c0-4.142-3.358-7.5-7.5-7.5h-35c-4.142 0-7.5 3.358-7.5 7.5v35c0 4.142 3.358 7.5 7.5 7.5zm7.5-35h20v20h-20z"/></g><g><path d="m161 407c0 4.142 3.358 7.5 7.5 7.5h35c4.142 0 7.5-3.358 7.5-7.5v-35c0-4.142-3.358-7.5-7.5-7.5h-35c-4.142 0-7.5 3.358-7.5 7.5zm15-27.5h20v20h-20z"/></g><g><path d="m168.5 344.5h35c4.142 0 7.5-3.358 7.5-7.5v-35c0-4.142-3.358-7.5-7.5-7.5h-35c-4.142 0-7.5 3.358-7.5 7.5v35c0 4.142 3.358 7.5 7.5 7.5zm7.5-35h20v20h-20z"/></g><g><path d="m301 407c0 4.142 3.358 7.5 7.5 7.5h35c4.142 0 7.5-3.358 7.5-7.5v-35c0-4.142-3.358-7.5-7.5-7.5h-35c-4.142 0-7.5 3.358-7.5 7.5zm15-27.5h20v20h-20z"/></g><g><path d="m308.5 344.5h35c4.142 0 7.5-3.358 7.5-7.5v-35c0-4.142-3.358-7.5-7.5-7.5h-35c-4.142 0-7.5 3.358-7.5 7.5v35c0 4.142 3.358 7.5 7.5 7.5zm7.5-35h20v20h-20z"/></g><g><path d="m231 407c0 4.142 3.358 7.5 7.5 7.5h35c4.142 0 7.5-3.358 7.5-7.5v-35c0-4.142-3.358-7.5-7.5-7.5h-35c-4.142 0-7.5 3.358-7.5 7.5zm15-27.5h20v20h-20z"/></g><g><path d="m238.5 344.5h35c4.142 0 7.5-3.358 7.5-7.5v-35c0-4.142-3.358-7.5-7.5-7.5h-35c-4.142 0-7.5 3.358-7.5 7.5v35c0 4.142 3.358 7.5 7.5 7.5zm7.5-35h20v20h-20z"/></g><g><path d="m371 407c0 4.142 3.358 7.5 7.5 7.5h35c4.142 0 7.5-3.358 7.5-7.5v-35c0-4.142-3.358-7.5-7.5-7.5h-35c-4.142 0-7.5 3.358-7.5 7.5zm15-27.5h20v20h-20z"/></g><g><path d="m378.5 344.5h35c4.142 0 7.5-3.358 7.5-7.5v-35c0-4.142-3.358-7.5-7.5-7.5h-35c-4.142 0-7.5 3.358-7.5 7.5v35c0 4.142 3.358 7.5 7.5 7.5zm7.5-35h20v20h-20z"/></g><g><path d="m477.5 265h17c9.649 0 17.5-7.851 17.5-17.5v-50c0-9.649-7.851-17.5-17.5-17.5h-17c-9.649 0-17.5 7.851-17.5 17.5v2.5h-36.5v-1.81c0-10.03-8.16-18.19-18.19-18.19h-6.81v-82.34c0-4.142-3.358-7.5-7.5-7.5s-7.5 3.358-7.5 7.5v82.34h-122.33c-4.142 0-7.5 3.358-7.5 7.5s3.358 7.5 7.5 7.5h144.14c1.759 0 3.19 1.431 3.19 3.19v58.326h-305v-58.326c0-1.759 1.431-3.19 3.19-3.19h119.48c4.142 0 7.5-3.358 7.5-7.5s-3.358-7.5-7.5-7.5h-97.67v-165h255v47.66c0 4.142 3.358 7.5 7.5 7.5s7.5-3.358 7.5-7.5v-50.16c0-6.893-5.607-12.5-12.5-12.5h-260c-6.893 0-12.5 5.607-12.5 12.5v167.5h-6.81c-10.03 0-18.19 8.16-18.19 18.19v1.81h-36.5v-2.5c0-9.649-7.851-17.5-17.5-17.5h-17c-9.649 0-17.5 7.851-17.5 17.5v50c0 9.649 7.851 17.5 17.5 17.5h17c9.649 0 17.5-7.851 17.5-17.5v-2.5h36.5v11.516h-3.964c-15.16 0-27.496 12.333-27.5 27.493l-.012 49.116c-.001 4.142 3.356 7.501 7.498 7.502h.002c4.141 0 7.499-3.357 7.5-7.498l.012-49.116c.002-6.891 5.609-12.497 12.5-12.497h342.928c6.891 0 12.498 5.606 12.5 12.497l.034 142.987h-367.995l.022-58.87c.001-4.142-3.355-7.501-7.497-7.503-.001 0-.002 0-.003 0-4.141 0-7.499 3.356-7.5 7.497l-.022 58.876h-11.003c-12.407 0-22.5 10.093-22.5 22.5v12.5h-11c-6.893 0-12.5 5.607-12.5 12.5v25c0 6.893 5.607 12.5 12.5 12.5h487c6.893 0 12.5-5.607 12.5-12.5v-25c0-6.893-5.607-12.5-12.5-12.5h-11v-12.5c0-12.407-10.093-22.5-22.5-22.5h-11.002l-.034-142.991c-.004-15.16-12.34-27.493-27.5-27.493h-3.964v-11.516h36.5v2.5c0 9.649 7.851 17.5 17.5 17.5zm-440.5-17.5c0 1.378-1.122 2.5-2.5 2.5h-17c-1.378 0-2.5-1.122-2.5-2.5v-50c0-1.378 1.122-2.5 2.5-2.5h17c1.378 0 2.5 1.122 2.5 2.5zm15-17.5v-15h36.5v15zm421.5 219.5v12.5h-62.5c-4.142 0-7.5 3.358-7.5 7.5s3.358 7.5 7.5 7.5h86v20h-482v-20h361c4.142 0 7.5-3.358 7.5-7.5s-3.358-7.5-7.5-7.5h-337.5v-12.5c0-4.136 3.364-7.5 7.5-7.5h420c4.136 0 7.5 3.364 7.5 7.5zm1.5-252c0-1.378 1.122-2.5 2.5-2.5h17c1.378 0 2.5 1.122 2.5 2.5v50c0 1.378-1.122 2.5-2.5 2.5h-17c-1.378 0-2.5-1.122-2.5-2.5zm-51.5 32.5v-15h36.5v15z"/></g><g><path d="m326.5 45c4.142 0 7.5-3.358 7.5-7.5s-3.358-7.5-7.5-7.5h-60.606c-4.142 0-7.5 3.358-7.5 7.5s3.358 7.5 7.5 7.5z"/></g><g><path d="m235.894 45c4.142 0 7.5-3.358 7.5-7.5s-3.358-7.5-7.5-7.5h-49.394c-4.142 0-7.5 3.358-7.5 7.5s3.358 7.5 7.5 7.5z"/></g><g><path d="m361.5 60h-210c-4.142 0-7.5 3.358-7.5 7.5s3.358 7.5 7.5 7.5h210c4.142 0 7.5-3.358 7.5-7.5s-3.358-7.5-7.5-7.5z"/></g><g><path d="m369 127.5c0-4.142-3.358-7.5-7.5-7.5h-210c-4.142 0-7.5 3.358-7.5 7.5s3.358 7.5 7.5 7.5h210c4.142 0 7.5-3.358 7.5-7.5z"/></g><g><path d="m151.5 150c-4.142 0-7.5 3.358-7.5 7.5s3.358 7.5 7.5 7.5h52.5c4.142 0 7.5-3.358 7.5-7.5s-3.358-7.5-7.5-7.5z"/></g><g><path d="m361.5 90h-210c-4.142 0-7.5 3.358-7.5 7.5s3.358 7.5 7.5 7.5h210c4.142 0 7.5-3.358 7.5-7.5s-3.358-7.5-7.5-7.5z"/></g></g></svg>
