<svg xmlns="http://www.w3.org/2000/svg" id="Capa_1" enable-background="new 0 0 512 512" height="512" viewBox="0 0 512 512" width="512" style="&#10;    fill: #fe554e;&#10;"><path d="m94.944 369.437h-31.67c-17.819 0-32.317 14.497-32.317 32.317s14.497 32.317 32.317 32.317h31.67c17.819 0 32.317-14.497 32.317-32.317s-14.498-32.317-32.317-32.317zm0 49.56h-31.67c-9.508 0-17.243-7.735-17.243-17.243s7.735-17.243 17.243-17.243h31.67c9.508 0 17.243 7.735 17.243 17.243s-7.735 17.243-17.243 17.243z"/><path d="m130.276 106.994c0-7.888-6.418-14.307-14.306-14.307h-73.721c-7.888 0-14.306 6.418-14.306 14.307v202.225c0 7.888 6.418 14.307 14.306 14.307h73.721c7.888 0 14.306-6.418 14.306-14.307zm-15.074 201.458h-72.185v-200.69h72.185z"/><path d="m64.916 261.082c4.163 0 7.537-3.374 7.537-7.537v-93.198c0-4.163-3.374-7.537-7.537-7.537s-7.537 3.374-7.537 7.537v93.198c0 4.163 3.374 7.537 7.537 7.537z"/><path d="m93.302 261.082c4.163 0 7.537-3.374 7.537-7.537v-68.633c0-4.163-3.374-7.537-7.537-7.537s-7.537 3.374-7.537 7.537v68.633c0 4.163 3.375 7.537 7.537 7.537z"/><path d="m238.047 369.437h-31.669c-17.819 0-32.317 14.497-32.317 32.317s14.497 32.317 32.317 32.317h31.669c17.819 0 32.317-14.497 32.317-32.317s-14.498-32.317-32.317-32.317zm0 49.56h-31.669c-9.508 0-17.243-7.735-17.243-17.243s7.735-17.243 17.243-17.243h31.669c9.508 0 17.243 7.735 17.243 17.243s-7.735 17.243-17.243 17.243z"/><path d="m273.379 106.994c0-7.888-6.418-14.307-14.306-14.307h-73.721c-7.888 0-14.306 6.418-14.306 14.307v202.225c0 7.888 6.418 14.307 14.306 14.307h73.721c7.888 0 14.306-6.418 14.306-14.307zm-15.074 201.458h-72.185v-200.69h72.185z"/><path d="m208.019 261.082c4.163 0 7.537-3.374 7.537-7.537v-93.198c0-4.163-3.374-7.537-7.537-7.537s-7.537 3.374-7.537 7.537v93.198c0 4.163 3.374 7.537 7.537 7.537z"/><path d="m236.406 261.083c4.163 0 7.537-3.374 7.537-7.537v-93.199c0-4.163-3.374-7.537-7.537-7.537s-7.537 3.374-7.537 7.537v93.199c0 4.163 3.374 7.537 7.537 7.537z"/><path d="m511.713 444.597-69.238-403.93c-1.824-10.649-11.97-17.822-22.625-16.005l-117.314 20.11c-1.673.287-3.277.788-4.785 1.472-3.549-5.044-9.404-8.355-16.026-8.355h-119.026c-4.537 0-8.708 1.564-12.033 4.163-3.326-2.602-7.504-4.163-12.044-4.163h-63.352c-4.163 0-7.537 3.374-7.537 7.537s3.374 7.537 7.537 7.537h63.352c2.401 0 4.351 1.885 4.495 4.251-.001.091-.014.18-.014.272v346.16c0 4.163 3.374 7.537 7.537 7.537s7.537-3.374 7.537-7.537v-346.161c0-2.494 2.029-4.522 4.522-4.522h119.026c2.494 0 4.522 2.029 4.522 4.522v409.822c0 2.494-2.029 4.522-4.522 4.522h-119.026c-2.401 0-4.351-1.885-4.495-4.251.001-.091.014-.18.014-.272 0-.266-.014-.528-.041-.786v-28.54c0-4.163-3.374-7.537-7.537-7.537s-7.537 3.374-7.537 7.537v29.327c0 .092.012.18.014.272-.144 2.365-2.094 4.251-4.495 4.251h-119.026c-2.494 0-4.522-2.029-4.522-4.522v-409.823c0-2.494 2.029-4.522 4.522-4.522h20.836c4.163 0 7.537-3.374 7.537-7.537s-3.374-7.537-7.537-7.537h-20.836c-10.805-.001-19.596 8.79-19.596 19.596v409.822c0 10.805 8.791 19.596 19.596 19.596h119.026c4.54 0 8.713-1.566 12.039-4.167 3.326 2.601 7.499 4.167 12.039 4.167h119.026c10.806 0 19.596-8.791 19.596-19.596v-313.623l54.448 317.644c.884 5.16 3.725 9.666 7.998 12.688 3.346 2.367 7.257 3.603 11.274 3.603 1.112 0 2.234-.095 3.353-.287l117.315-20.11c5.159-.884 9.666-3.724 12.688-7.998 3.022-4.272 4.2-9.468 3.315-14.627zm-15.622 5.923c-.697.986-1.737 1.641-2.928 1.845l-117.316 20.11c-1.189.206-2.389-.068-3.375-.765-.986-.698-1.642-1.737-1.846-2.928l-69.238-403.932c-.153-.893-.039-1.798.33-2.615 0 0 0-.001.001-.001.622-1.377 1.878-2.349 3.362-2.604l117.315-20.11c.257-.044.513-.066.766-.066 2.161 0 4.078 1.558 4.455 3.76l69.238 403.931c.205 1.19-.067 2.389-.764 3.375z"/><path d="m432.814 358.824-31.214 5.35c-8.508 1.458-15.939 6.143-20.924 13.191-4.984 7.047-6.927 15.614-5.468 24.121 1.458 8.509 6.142 15.94 13.19 20.924 5.519 3.904 11.968 5.941 18.594 5.941 1.834 0 3.684-.156 5.529-.472l31.214-5.351c8.508-1.458 15.939-6.143 20.924-13.191 4.985-7.047 6.927-15.614 5.469-24.122-3.013-17.562-19.75-29.401-37.314-26.391zm19.537 41.81c-2.66 3.761-6.624 6.259-11.164 7.038l-31.214 5.351c-4.538.778-9.111-.258-12.871-2.918s-6.259-6.624-7.038-11.163c-.778-4.54.258-9.111 2.918-12.871 2.66-3.761 6.625-6.26 11.164-7.038l31.214-5.35c.981-.169 1.958-.25 2.922-.25 8.239 0 15.548 5.942 16.986 14.331.779 4.539-.257 9.111-2.917 12.87z"/><path d="m387.718 312.326c-.704-4.102-4.604-6.857-8.702-6.155l-7.687 1.318-33.906-197.805 71.148-12.195 33.906 197.805-28.978 4.967c-4.103.704-6.858 4.6-6.155 8.703.704 4.102 4.597 6.857 8.702 6.155l29.736-5.098c7.774-1.333 13.015-8.743 11.682-16.518l-34.165-199.317c-.645-3.767-2.719-7.056-5.839-9.263-3.121-2.207-6.914-3.064-10.678-2.421l-72.662 12.456c-7.775 1.333-13.016 8.742-11.683 16.518l34.165 199.317c.645 3.767 2.719 7.057 5.839 9.263 2.443 1.728 5.298 2.63 8.231 2.63.813 0 1.631-.07 2.448-.209l8.443-1.448c4.103-.703 6.859-4.599 6.155-8.703z"/><path d="m366.619 150.385c-4.103.704-6.858 4.6-6.155 8.703l15.746 91.859c.63 3.671 3.816 6.264 7.42 6.264.422 0 .851-.035 1.282-.109 4.103-.704 6.858-4.6 6.155-8.703l-15.746-91.859c-.703-4.102-4.598-6.854-8.702-6.155z"/><path d="m411.608 252.415c.422 0 .851-.035 1.282-.109 4.103-.704 6.858-4.6 6.155-8.703l-15.746-91.859c-.703-4.101-4.594-6.857-8.702-6.155-4.103.704-6.858 4.6-6.155 8.703l15.746 91.859c.629 3.671 3.816 6.264 7.42 6.264z"/></svg>
