<?xml version="1.0" encoding="UTF-8"?>
<svg fill="#fe554e" xmlns="http://www.w3.org/2000/svg" viewBox="0 0 512 512" width="512" height="512"><g id="outline"><path d="M462,112H98a34.038,34.038,0,0,0-34,34V256H24a8,8,0,0,0,0,16H64v48H48a8,8,0,0,0,0,16H64v30a34.038,34.038,0,0,0,34,34H462a34.038,34.038,0,0,0,34-34V146A34.038,34.038,0,0,0,462,112ZM98,128H462a18,18,0,0,1,3.7.387L296.794,271.31a25.923,25.923,0,0,1-33.588,0L94.3,128.387A17.993,17.993,0,0,1,98,128ZM80,366V336H96a8,8,0,0,0,0-16H80V304h24a8,8,0,0,0,0-16H80V272h32a8,8,0,0,0,0-16H80V146a17.85,17.85,0,0,1,1.684-7.552,8.046,8.046,0,0,0,1.148,1.2l152.51,129.047L81.549,373.273A17.869,17.869,0,0,1,80,366Zm382,18H98a18.005,18.005,0,0,1-3.306-.318L248.02,279.42l4.85,4.1a41.878,41.878,0,0,0,54.26,0l4.85-4.1L465.306,383.682A18.014,18.014,0,0,1,462,384Zm18-18a17.869,17.869,0,0,1-1.549,7.273L324.658,268.693,478.394,138.609A17.856,17.856,0,0,1,480,146Z"/><path d="M48,304a8,8,0,0,0,0-16H32a8,8,0,0,0,0,16Z"/></g></svg>
