<svg xmlns="http://www.w3.org/2000/svg" height="512" viewBox="0 0 64 64" width="512" style="&#10;    fill: #5f6162;&#10;"><path d="m26 21h12v2h-12z"/><path d="m26 25h12v2h-12z"/><path d="m26 29h12v2h-12z"/><path d="m26 33h12v2h-12z"/><path d="m22 40h4v2h-4z"/><path d="m28 40h20v2h-20z"/><path d="m20 44h14v2h-14z"/><path d="m36 44h4v2h-4z"/><path d="m42 44h6v2h-6z"/><path d="m16 44h2v2h-2z"/><path d="m16 48h32v2h-32z"/><path d="m16 52h8v2h-8z"/><path d="m26 52h22v2h-22z"/><path d="m32 18a5 5 0 0 0 3.75-1.693l-1.5-1.323a3 3 0 1 1 0-3.968l1.5-1.323a5 5 0 1 0 -3.75 8.307z"/><path d="m7 27h12v2h-12z"/><path d="m7 31h12v2h-12z"/><path d="m59 16h-4v-11a3 3 0 0 0 -3-3h-40a3 3 0 0 0 -3 3v17h-4a3 3 0 0 0 -3 3v10a3 3 0 0 0 3 3h4v21a3 3 0 0 0 3 3h40a3 3 0 0 0 3-3v-27h4a3 3 0 0 0 3-3v-10a3 3 0 0 0 -3-3zm-40-12v2.7l-.168-.252a1 1 0 0 0 -1.664 0l-.168.252v-2.7zm-15 31v-10a1 1 0 0 1 1-1h16a1 1 0 0 1 1 1v10a1 1 0 0 1 -1 1h-4a1 1 0 0 0 -1 1v1.567l-2.274-2.274a1 1 0 0 0 -.707-.293h-8.019a1 1 0 0 1 -1-1zm49 24a1 1 0 0 1 -1 1h-40a1 1 0 0 1 -1-1v-21h1.6l3.689 3.689a1 1 0 0 0 1.711-.707v-2.982h3a3 3 0 0 0 3-3v-10a3 3 0 0 0 -3-3h-10v-17a1 1 0 0 1 1-1h3v6a1 1 0 0 0 1.832.555l1.168-1.755 1.168 1.752a1 1 0 0 0 1.832-.552v-6h31a1 1 0 0 1 1 1v11h-10a3 3 0 0 0 -3 3v10a3 3 0 0 0 3 3h3v2.982a1 1 0 0 0 1.707.707l3.693-3.689h1.6zm7-30a1 1 0 0 1 -1 1h-8.019a1 1 0 0 0 -.707.293l-2.274 2.274v-1.567a1 1 0 0 0 -1-1h-4a1 1 0 0 1 -1-1v-10a1 1 0 0 1 1-1h16a1 1 0 0 1 1 1z"/><path d="m45 21h12v2h-12z"/><path d="m45 25h12v2h-12z"/></svg>
