<svg xmlns="http://www.w3.org/2000/svg" id="Capa_1" enable-background="new 0 0 512 512" height="512" viewBox="0 0 512 512" width="512" style="&#10;    fill: #fff;&#10;"><g><path d="m506.364 133.65-98.18-98.258v98.258z"/><path d="m378.184 29.833h-222.517v115.328l56.833-26.522v325.057l-56.833-26.522v64.992h356.333v-318.516h-133.816zm71.983 364.834h-105.465c-19.137 0-36.9-9.506-47.516-25.43-5.039-7.558-13.47-12.07-22.554-12.07h-24.465v-30h24.465c19.137 0 36.899 9.506 47.515 25.429 5.039 7.559 13.47 12.071 22.554 12.071h105.465v30zm0-62.5h-80.465c-19.137 0-36.9-9.506-47.516-25.43-5.039-7.558-13.47-12.07-22.554-12.07h-49.465v-30h49.465c19.137 0 36.899 9.506 47.515 25.429 5.039 7.559 13.47 12.071 22.554 12.071h80.465v30zm-53-92.501h53v30h-53c-19.137 0-36.9-9.506-47.516-25.43-5.039-7.558-13.47-12.07-22.554-12.07h-76.931v-30h76.931c19.137 0 36.899 9.506 47.515 25.429 5.04 7.559 13.471 12.071 22.555 12.071z"/><path d="m0 203.668h59.666v155h-59.666z"/><path d="m89.666 353.269 92.833 43.322v-230.846l-92.833 43.322z"/></g></svg>
