<svg xmlns="http://www.w3.org/2000/svg" xmlns:xlink="http://www.w3.org/1999/xlink" version="1.1" id="Layer_1" x="0px" y="0px" viewBox="0 0 460 460" style="enable-background:new 0 0 460 460;fill: #fff;" xml:space="preserve">
<g>
	<g>
		<g>
			<path d="M239.726,383.866l-47.513,12.205c-3.379,0.868-6.861,1.308-10.349,1.308c-11.111,0-21.558-4.327-29.415-12.184     c-10.35-10.35-14.517-25.587-10.876-39.764l1.08-4.203h-40.247c-13.807,0-25-11.193-25-25s11.193-25,25-25h53.455     c3.484-9.488,9.001-18.144,16.183-25.327l18.673-18.673h-88.311c-13.807,0-25-11.193-25-25s11.193-25,25-25h138.311     l44.037-44.036c-0.444,0.023-0.89,0.036-1.339,0.036H102.407c-13.807,0-25-11.193-25-25c0-13.807,11.193-25,25-25h181.008     c13.807,0,25,11.193,25,25c0,0.449-0.013,0.896-0.036,1.339l60.654-60.654c4.857-4.857,10.303-8.908,16.17-12.107v-28.46     C385.203,12.691,372.511,0,356.856,0H28.966C13.311,0,0.62,12.691,0.62,28.346v403.307C0.62,447.309,13.311,460,28.966,460     h327.89c15.655,0,28.346-12.691,28.346-28.346V252.142L271.744,365.6C262.905,374.44,251.833,380.756,239.726,383.866z"/>
            <path d="M193.258,287.115c-5.047,5.047-8.646,11.356-10.422,18.269l-12.205,47.512c-1.02,3.972,0.133,8.187,3.032,11.087     c2.203,2.203,5.164,3.397,8.202,3.397c0.961,0,1.93-0.12,2.885-0.365l47.512-12.205c6.913-1.776,13.222-5.375,18.269-10.422     l161.327-161.327l-57.273-57.273L193.258,287.115z"/>
            <path d="M447.519,90.127c-7.908-7.908-18.272-11.862-28.636-11.862c-10.364,0-20.729,3.954-28.636,11.862l-14.458,14.458     l57.199,57.346l14.532-14.532C463.334,131.584,463.334,105.942,447.519,90.127z"/>
		</g>
	</g>
</g>
    <g>
</g>
    <g>
</g>
    <g>
</g>
    <g>
</g>
    <g>
</g>
    <g>
</g>
    <g>
</g>
    <g>
</g>
    <g>
</g>
    <g>
</g>
    <g>
</g>
    <g>
</g>
    <g>
</g>
    <g>
</g>
    <g>
</g>
</svg>
