<svg xmlns="http://www.w3.org/2000/svg" xmlns:xlink="http://www.w3.org/1999/xlink" version="1.1" viewBox="0 0 348.142 348.142" enable-background="new 0 0 348.142 348.142" style="&#10;    fill: aliceblue;&#10;">
  <path d="m345.207,294.423l-152.689-262.191c-3.867-6.64-10.763-10.604-18.447-10.604s-14.58,3.964-18.447,10.604l-152.689,262.191c-3.892,6.684-3.915,14.677-0.06,21.382 3.854,6.705 10.773,10.708 18.507,10.708h305.378c7.734,0 14.653-4.003 18.507-10.708 3.854-6.705 3.832-14.698-0.06-21.382zm-12.945,13.907c-0.55,0.957-2.188,3.184-5.502,3.184h-305.378c-3.314,0-4.953-2.227-5.502-3.184-0.55-0.958-1.65-3.493 0.018-6.357l152.688-262.192c1.657-2.846 4.388-3.153 5.485-3.153s3.828,0.307 5.485,3.153l152.689,262.191c1.668,2.864 0.568,5.4 0.017,6.358z"/>
</svg>