<svg xmlns="http://www.w3.org/2000/svg" id="Layer_3" height="512" viewBox="0 0 64 64" width="512" data-name="Layer 3" style="&#10;    fill: #5f6162;&#10;"><path d="m44.419 24.249a16.425 16.425 0 0 0 .581-4.249c0-10.477-9.869-19-22-19s-22 8.523-22 19c0 9.464 8.055 17.333 18.554 18.765a16.586 16.586 0 0 0 -.554 4.235 17.519 17.519 0 0 0 5.471 12.513l-1.446 6.262a1 1 0 0 0 1.475 1.089l5.7-3.326a24.712 24.712 0 0 0 10.8 2.462c12.131 0 22-8.523 22-19 0-9.448-7.911-17.321-18.581-18.751zm-41.419-4.249c0-9.374 8.972-17 20-17s20 7.626 20 17a15.638 15.638 0 0 1 -5.254 11.451 1 1 0 0 0 -.294.957l1.053 4.562-4.171-2.433a1 1 0 0 0 -.964-.025 22.627 22.627 0 0 1 -10.37 2.488c-11.028 0-20-7.626-20-17zm38 40a22.638 22.638 0 0 1 -10.37-2.487 1 1 0 0 0 -.964.024l-4.166 2.433 1.053-4.562a1 1 0 0 0 -.294-.957 15.638 15.638 0 0 1 -5.259-11.451 14.622 14.622 0 0 1 .582-4.044c.469.026.941.044 1.418.044a24.709 24.709 0 0 0 10.8-2.462l5.7 3.326a1 1 0 0 0 1.479-1.089l-1.446-6.262a18.589 18.589 0 0 0 4.251-6.332c9.86 1.163 17.216 8.277 17.216 16.819 0 9.374-8.972 17-20 17z"/><path d="m15.32 23.123a13.527 13.527 0 0 0 2.617-7.123h2.063v-2h-5v-3h-2v3h-5v2h7.937a11.528 11.528 0 0 1 -1.937 5.506 11.624 11.624 0 0 1 -1.665-3.743l-1.943.474a13.59 13.59 0 0 0 2.3 4.885 11.776 11.776 0 0 1 -2.152 1.74l-2.07 1.29 1.06 1.7 2.065-1.29a13.736 13.736 0 0 0 2.405-1.933 13.743 13.743 0 0 0 2.408 1.929l2.065 1.29 1.06-1.7-2.064-1.29a11.657 11.657 0 0 1 -2.149-1.735z"/><path d="m23 14h16v2h-16z"/><path d="m23 18h16v2h-16z"/><path d="m19 22h20v2h-20z"/><path d="m36.315 41.808a3.361 3.361 0 0 0 -6.63 0l-.671 4.027a1.021 1.021 0 0 0 -.014.165v5h2v-4h4v4h2v-5a1.021 1.021 0 0 0 -.014-.165zm-3.315-.808a1.359 1.359 0 0 1 1.343 1.137l.477 2.863h-3.64l.477-2.862a1.359 1.359 0 0 1 1.343-1.138z"/><path d="m39 49h18v2h-18z"/><path d="m39 45h18v2h-18z"/><path d="m39 41h18v2h-18z"/></svg>
