<svg xmlns="http://www.w3.org/2000/svg" height="480pt" viewBox="0 -56 480 480" width="480pt"><path d="m472 304h-16v-264c-.027344-22.082031-17.917969-39.9726562-40-40h-352c-22.082031.0273438-39.972656 17.917969-40 40v264h-16c-4.417969 0-8 3.582031-8 8v32c0 13.253906 10.746094 24 24 24h432c13.253906 0 24-10.746094 24-24v-32c0-4.417969-3.582031-8-8-8zm-432-224h176v-16h-176v-24c0-13.253906 10.746094-24 24-24h352c13.253906 0 24 10.746094 24 24v24h-48v16h48v224h-400zm168 240h64v8h-64zm256 24c0 4.417969-3.582031 8-8 8h-432c-4.417969 0-8-3.582031-8-8v-24h176v8c0 8.835938 7.164062 16 16 16h64c8.835938 0 16-7.164062 16-16v-8h176zm0 0" style="&#10;    fill: #133630;&#10;"/><path d="m72 32h16v16h-16zm0 0" style="&#10;    fill: #133630;&#10;"/><path d="m104 32h16v16h-16zm0 0" style="&#10;    fill: #133630;&#10;"/><path d="m136 32h16v16h-16zm0 0" style="&#10;    fill: #133630;&#10;"/><path d="m176 144c-26.507812 0-48 21.492188-48 48s21.492188 48 48 48 48-21.492188 48-48c-.027344-26.5-21.5-47.972656-48-48zm0 80c-17.671875 0-32-14.328125-32-32s14.328125-32 32-32 32 14.328125 32 32-14.328125 32-32 32zm0 0" style="&#10;    fill: #D03B3B;&#10;"/><path d="m265.601562 168.160156-14.195312-2.839844c-.925781-2.644531-1.992188-5.238281-3.199219-7.769531l8-12c2.117188-3.171875 1.699219-7.398437-1-10.09375l-22.640625-22.65625c-2.695312-2.695312-6.914062-3.113281-10.085937-1l-12 8c-2.53125-1.203125-5.121094-2.269531-7.761719-3.199219l-2.878906-14.203124c-.761719-3.722657-4.039063-6.398438-7.839844-6.398438h-32c-3.800781 0-7.078125 2.675781-7.839844 6.398438l-2.847656 14.195312c-2.640625.929688-5.230469 1.996094-7.761719 3.199219l-12-8c-3.171875-2.113281-7.390625-1.695313-10.085937 1l-22.664063 22.640625c-2.699219 2.695312-3.117187 6.921875-1 10.09375l8 12c-1.207031 2.53125-2.273437 5.125-3.199219 7.769531l-14.203124 2.863281c-3.722657.761719-6.398438 4.039063-6.398438 7.839844v32c0 3.800781 2.675781 7.078125 6.398438 7.839844l14.195312 2.839844c.925781 2.644531 1.992188 5.238281 3.199219 7.769531l-8 12c-2.117188 3.171875-1.699219 7.398437 1 10.09375l22.640625 22.65625c2.695312 2.695312 6.914062 3.113281 10.085937 1l12-8c2.53125 1.203125 5.121094 2.269531 7.761719 3.199219l2.878906 14.203124c.761719 3.722657 4.039063 6.398438 7.839844 6.398438h32c3.800781 0 7.078125-2.675781 7.839844-6.398438l2.847656-14.195312c2.640625-.929688 5.230469-1.996094 7.761719-3.199219l12 8c3.171875 2.113281 7.390625 1.695313 10.085937-1l22.664063-22.640625c2.699219-2.695312 3.117187-6.921875 1-10.09375l-8-12c1.207031-2.53125 2.273437-5.125 3.199219-7.769531l14.203124-2.863281c3.722657-.761719 6.398438-4.039063 6.398438-7.839844v-32c0-3.800781-2.675781-7.078125-6.398438-7.839844zm-9.601562 33.28125-12.382812 2.480469c-2.9375.585937-5.300782 2.765625-6.121094 5.644531-1.339844 4.707032-3.21875 9.246094-5.601563 13.523438-1.453125 2.617187-1.324219 5.828125.335938 8.316406l6.984375 10.480469-13.351563 13.359375-10.480469-6.988282c-2.496093-1.664062-5.714843-1.792968-8.335937-.328124-4.269531 2.378906-8.800781 4.257812-13.503906 5.597656-2.878907.824218-5.058594 3.183594-5.648438 6.121094l-2.445312 12.351562h-18.898438l-2.472656-12.382812c-.585937-2.9375-2.765625-5.300782-5.644531-6.121094-4.703125-1.339844-9.234375-3.21875-13.503906-5.601563-2.621094-1.460937-5.839844-1.335937-8.335938.328125l-10.480469 6.992188-13.3125-13.328125 6.984375-10.480469c1.660156-2.488281 1.789063-5.699219.335938-8.316406-2.382813-4.277344-4.261719-8.816406-5.601563-13.523438-.820312-2.878906-3.183593-5.058594-6.121093-5.644531l-12.398438-2.480469v-18.882812l12.382812-2.480469c2.9375-.585937 5.300782-2.765625 6.121094-5.644531 1.339844-4.707032 3.21875-9.246094 5.601563-13.523438 1.453125-2.617187 1.324219-5.828125-.335938-8.316406l-6.984375-10.480469 13.351563-13.359375 10.480469 6.988282c2.496093 1.664062 5.714843 1.792968 8.335937.328124 4.269531-2.378906 8.800781-4.257812 13.503906-5.597656 2.878907-.824218 5.058594-3.183594 5.648438-6.121094l2.445312-12.351562h18.898438l2.472656 12.382812c.585937 2.9375 2.765625 5.300782 5.644531 6.121094 4.703125 1.339844 9.234375 3.21875 13.503906 5.601563 2.621094 1.460937 5.839844 1.335937 8.335938-.328125l10.480469-6.992188 13.351562 13.359375-6.980469 10.480469c-1.660156 2.492188-1.792968 5.703125-.335937 8.320312 2.378906 4.273438 4.257813 8.8125 5.597656 13.519532.824219 2.878906 3.183594 5.058594 6.121094 5.648437l12.359375 2.445313zm0 0" style="&#10;    fill: #133630;&#10;"/><path d="m304 112c13.011719.007812 24.722656 7.890625 29.625 19.945312 4.902344 12.050782 2.019531 25.875-7.296875 34.960938-9.3125 9.085938-23.199219 11.628906-35.128906 6.429688l-6.398438 14.664062c24.296875 10.597656 52.585938-.503906 63.183594-24.800781 10.601563-24.296875-.5-52.585938-24.792969-63.1875-24.296875-10.605469-52.585937.496093-63.191406 24.789062l14.65625 6.398438c5.089844-11.667969 16.613281-19.207031 29.34375-19.199219zm0 0" style="&#10;    fill: #D03B3B;&#10;"/><path d="m393.601562 120.160156-14.195312-2.839844c-.925781-2.644531-1.992188-5.238281-3.199219-7.769531l8-12c2.117188-3.171875 1.699219-7.398437-1-10.09375l-22.640625-22.65625c-2.695312-2.695312-6.914062-3.113281-10.085937-1l-12 8c-2.53125-1.203125-5.121094-2.269531-7.761719-3.199219l-2.878906-14.203124c-.761719-3.722657-4.039063-6.398438-7.839844-6.398438h-32c-3.800781 0-7.078125 2.675781-7.839844 6.398438l-2.847656 14.195312c-2.640625.929688-5.230469 1.996094-7.761719 3.199219l-12-8c-3.171875-2.113281-7.390625-1.695313-10.085937 1l-22.664063 22.640625 11.3125 11.308594 17.992188-17.988282 10.480469 6.988282c2.496093 1.664062 5.714843 1.792968 8.335937.328124 4.269531-2.378906 8.800781-4.257812 13.503906-5.597656 2.878907-.824218 5.058594-3.183594 5.644531-6.121094l2.480469-12.351562h18.898438l2.472656 12.382812c.585937 2.9375 2.765625 5.300782 5.644531 6.121094 4.703125 1.339844 9.234375 3.21875 13.503906 5.601563 2.621094 1.460937 5.839844 1.335937 8.335938-.328125l10.480469-6.992188 13.351562 13.359375-6.980469 10.480469c-1.660156 2.492188-1.792968 5.703125-.335937 8.320312 2.378906 4.273438 4.257813 8.8125 5.597656 13.519532.824219 2.878906 3.183594 5.058594 6.121094 5.648437l12.359375 2.445313v18.882812l-12.382812 2.480469c-2.9375.585937-5.300782 2.765625-6.121094 5.644531-1.339844 4.707032-3.21875 9.246094-5.601563 13.523438-1.453125 2.617187-1.324219 5.828125.335938 8.316406l6.984375 10.480469-13.351563 13.359375-10.480469-6.988282c-2.496093-1.664062-5.714843-1.792968-8.335937-.328124-4.269531 2.378906-8.800781 4.257812-13.503906 5.597656-2.878907.824218-5.058594 3.183594-5.648438 6.121094l-2.445312 12.351562h-18.898438l-2.472656-12.382812-15.6875 3.144531 3.769531 18.839843c.761719 3.722657 4.039063 6.398438 7.839844 6.398438h32c3.800781 0 7.078125-2.675781 7.839844-6.398438l2.847656-14.195312c2.640625-.929688 5.230469-1.996094 7.761719-3.199219l12 8c3.171875 2.113281 7.390625 1.695313 10.085937-1l22.664063-22.640625c2.699219-2.695312 3.117187-6.921875 1-10.09375l-8-12c1.207031-2.53125 2.273437-5.125 3.199219-7.769531l14.203124-2.863281c3.722657-.761719 6.398438-4.039063 6.398438-7.839844v-32c0-3.800781-2.675781-7.078125-6.398438-7.839844zm0 0" style="&#10;    fill: #133630;&#10;"/></svg>