<svg xmlns="http://www.w3.org/2000/svg" id="Capa_1" enable-background="new 0 0 512 512" height="512" viewBox="0 0 512 512" width="512"><g><path d="m457.163 36.954h-301.415c-30.237 0-54.836 24.6-54.836 54.837v373.255c0 5.522 4.477 10 10 10h301.415c5.523 0 10-4.478 10-10v-331.459h79.673c5.523 0 10-4.477 10-10v-31.796c0-30.237-24.6-54.837-54.837-54.837zm-54.836 54.837v363.255h-281.415v-363.255c0-19.209 15.627-34.837 34.836-34.837h259.096c-7.817 9.48-12.517 21.619-12.517 34.837zm89.673 21.796h-69.673v-21.796c0-19.209 15.627-34.837 34.836-34.837s34.837 15.628 34.837 34.837z"/><path d="m65.694 294.865c-5.523 0-10 4.478-10 10v57.102l-35.694.36v-200.93h35.694v53.469c0 5.522 4.477 10 10 10s10-4.478 10-10v-98.576c0-20.869-16.978-37.848-37.847-37.848s-37.847 16.979-37.847 37.848v256.133c0 1.478.328 2.939.96 4.275l27.848 58.864c1.653 3.496 5.173 5.725 9.04 5.725h.018c3.873-.007 7.394-2.25 9.037-5.757l27.847-59.422c.623-1.328.945-2.776.945-4.243v-67c-.001-5.522-4.478-10-10.001-10zm-27.847-196.423c9.841 0 17.847 8.007 17.847 17.848v25.106h-35.694v-25.106c0-9.841 8.006-17.848 17.847-17.848zm-.043 309.37-12.083-25.542 24.168-.244z"/><circle cx="65.694" cy="259.865" r="10"/><path d="m260.179 150.118c-58.383 0-105.881 47.498-105.881 105.882s47.498 105.882 105.881 105.882 105.881-47.498 105.881-105.882-47.498-105.882-105.881-105.882zm0 191.764c-47.355 0-85.881-38.526-85.881-85.882s38.526-85.882 85.881-85.882 85.881 38.527 85.881 85.882-38.526 85.882-85.881 85.882z"/><path d="m292.677 225.329-40.167 40.166-16.781-16.603c-3.926-3.885-10.257-3.852-14.142.075-3.884 3.926-3.851 10.258.076 14.142l23.852 23.6c1.949 1.929 4.491 2.892 7.033 2.892 2.559 0 5.119-.977 7.071-2.929l47.2-47.199c3.905-3.905 3.906-10.237 0-14.143-3.905-3.904-10.237-3.905-14.142-.001z" style="&#10;    fill: #d43c3c;&#10;"/></g></svg>