<svg xmlns="http://www.w3.org/2000/svg" id="Capa_1" enable-background="new 0 0 512.004 512.004" height="512" viewBox="0 0 512.004 512.004" width="512"><g><path d="m294.019 160.494c-7.376 7.068-16.701 12.115-27.088 14.217l16.791 57.038h-55.439l16.791-57.038c-10.387-2.103-19.712-7.149-27.088-14.217l-97.812 332.271c-2.339 7.947 2.207 16.286 10.153 18.625 1.414.416 2.84.614 4.243.614 6.481 0 12.459-4.235 14.383-10.768l3.257-11.064h207.585l3.257 11.064c1.924 6.534 7.901 10.768 14.383 10.768 1.402 0 2.829-.198 4.243-.614 7.946-2.339 12.492-10.679 10.153-18.625zm16.977 163.908h-85.25l69.758-52.626zm-52.012-62.653-50.817 38.336 11.285-38.336zm-66.807 92.653h92.068l-116.585 83.283zm-4.385 105.77 134.82-96.31 28.351 96.31z" style="&#10;    fill: #133630;&#10;"/><path d="m149.881 203.235c2.929 2.929 6.768 4.394 10.606 4.394s7.678-1.465 10.606-4.393c5.858-5.858 5.858-15.355 0-21.213-30.998-30.999-30.998-81.437 0-112.435 5.858-5.858 5.858-15.355 0-21.213-5.857-5.858-15.355-5.858-21.213 0-42.694 42.695-42.694 112.165.001 154.86z" style="&#10;    fill: #D03B3B;&#10;"/><path d="m340.91 203.236c2.929 2.929 6.768 4.393 10.606 4.393s7.678-1.464 10.606-4.394c42.695-42.695 42.695-112.166 0-154.861-5.857-5.858-15.355-5.857-21.213 0s-5.858 15.355 0 21.213c30.998 30.999 30.998 81.437 0 112.435-5.857 5.858-5.857 15.356.001 21.214z" style="&#10;    fill: #D03B3B;&#10;"/><path d="m127.113 226.003c-55.249-55.249-55.249-145.146 0-200.396 5.858-5.858 5.858-15.355 0-21.213-5.857-5.858-15.355-5.858-21.213 0-66.946 66.946-66.946 175.876 0 242.822 2.929 2.929 6.768 4.394 10.606 4.394s7.678-1.464 10.606-4.394c5.86-5.858 5.86-15.355.001-21.213z" style="&#10;    fill: #D03B3B;&#10;"/><path d="m406.104 4.394c-5.856-5.857-15.354-5.858-21.213 0-5.858 5.858-5.858 15.355 0 21.213 55.249 55.25 55.249 145.147 0 200.396-5.858 5.858-5.858 15.355 0 21.213 2.929 2.929 6.768 4.394 10.606 4.394s7.678-1.464 10.606-4.394c66.947-66.946 66.947-175.876.001-242.822z" style="&#10;    fill: #D03B3B;&#10;"/><circle cx="256.002" cy="120.805" r="25" style="&#10;    fill: #133630;&#10;"/></g></svg>