<?xml version="1.0" encoding="utf-8"?>
<!-- Generator: Adobe Illustrator 17.1.0, SVG Export Plug-In . SVG Version: 6.00 Build 0)  -->
<!DOCTYPE svg PUBLIC "-//W3C//DTD SVG 1.1//EN" "http://www.w3.org/Graphics/SVG/1.1/DTD/svg11.dtd">
<svg version="1.1" id="Слой_1" xmlns="http://www.w3.org/2000/svg" xmlns:xlink="http://www.w3.org/1999/xlink" x="0px" y="0px"
	 viewBox="0 0 50 20" enable-background="new 0 0 50 20" xml:space="preserve">
<g>
	<path fill="#B31E1D" d="M36.4556694,0.513243l-0.0250282,4.5854816c-1.0123978-1.2273431-2.6706123-1.713176-4.1850357-1.2268517
		c-1.4786015,0.4760191-2.7064362,2.0297043-2.7064362,4.7361374c0,1.0742321,0.3435173,2.19312,0.9692135,3.0676212
		c0.6178436,0.8568335,1.5939236,1.2975178,2.6166286,1.4496469c0.9417305,0.1413336,1.792675-0.1094341,2.5547981-0.6723156
		c0.2870789-0.2056208,0.5481567-0.446085,0.7758598-0.715992v1.1036749h1.9546204V0.5132385
		C38.4102898,0.5132385,36.4556694,0.5132385,36.4556694,0.513243z M36.4556694,10.1607151
		c0,0-0.9127769,1.7205362-3.1927605,1.1188879c-1.052639-0.2772694-1.6685181-1.4388523-1.7023792-2.6642303
		c-0.0358219-1.2391205,0.5334339-2.9184351,1.9359722-3.1481013c2.0836868-0.3410654,2.9591675,1.1350832,2.9591675,1.1350832
		V10.1607151z"/>
	<path fill="#B31E1D" d="M23.8254757,3.6701775c0,0-3.4744434-0.1334815-4.4436569,3.4749351
		s2.2721291,7.1157403,6.4655094,5.6970105c0,0,1.5536823-0.6517057,1.7205353-1.0359535l-0.8686104-1.2361755
		c0,0-1.1507874,1.1360655-2.9895916,0.9520378s-2.4566479-1.9379349-2.4399643-2.4537039h6.916502
		C28.1861973,9.068325,28.8040409,3.9876866,23.8254757,3.6701775z M26.2791786,7.6800194h-5.0595379
		c0,0,0.0917683-2.49787,2.6897526-2.4394717c2.469408,0.0559454,2.372242,2.4375086,2.372242,2.4375086L26.2791786,7.6800194z"/>
	<path fill="#B31E1D" d="M13.3010502,4.1937985h1.9207582v1.3691664c0,0,1.3534613-1.6361296,2.9238348-1.5026479v1.9045644
		c0,0-1.6194458-0.4819078-2.8732872,1.1709065v6.0292397h-1.9713049
		C13.3010511,13.1650276,13.3010511,4.1937985,13.3010502,4.1937985z"/>
	<path fill="#F28F06" d="M45.9465942,15.7046108h-2.3953056c-0.834259-0.0009823-1.5100098-0.6772213-1.5109863-1.5114803
		v-0.8769531c0.0014725-0.3106403-0.1226883-0.6085205-0.3435211-0.8264093
		c-0.053978-0.0525093-0.105999-0.0981483-0.1472206-0.1349535c-0.6836014-0.5457039-1.2165451-1.2572775-1.5487785-2.0665083
		l-0.0049057-0.0112858c-0.0309181-0.0775385-0.06036-0.1550732-0.0883331-0.2340851l-0.0186462-0.0569239
		c-0.0220871-0.0652695-0.0426979-0.1310272-0.0618362-0.1962967l-0.0220833-0.078517
		c-0.0161972-0.0593815-0.0314064-0.1187592-0.045639-0.1786308c-0.0073624-0.0304251-0.0142288-0.0608511-0.0211029-0.0912771
		c-0.0122681-0.057416-0.0235519-0.1148348-0.0343513-0.1727419l-0.0029449-0.0176659
		c-0.0049057-0.0269899-0.0098152-0.0534916-0.0142288-0.0804815c-0.0093231-0.057416-0.0171738-0.1158142-0.0245361-0.1737213
		l-0.003437-0.0274811c-0.003437-0.0235548-0.0063782-0.0490742-0.008831-0.0711584
		c-0.0068741-0.0623255-0.0117798-0.1251383-0.0157051-0.188446V8.6796598c0-0.0191402-0.003437-0.0377884-0.0044174-0.0569248
		c-0.0049057-0.0917683-0.0078506-0.1845188-0.0078506-0.2777576c0-0.0932426,0-0.1756868,0.0068703-0.2625465
		c0-0.0201206,0.0014725-0.0402412,0.0044174-0.0603619l0.0044174-0.0628147
		c0.0029449-0.0456386,0.006382-0.0907874,0.0107956-0.1359348c0.0024529-0.0245371,0.0058899-0.0490742,0.0088348-0.0731201
		l0.0093231-0.0721388c0.0039253-0.0368056,0.0083427-0.0736113,0.0142288-0.1099253
		c0.0039291-0.0274816,0.0088348-0.0544715,0.0142326-0.0819545l0.0127602-0.0736113
		c0.005394-0.0323892,0.0112839-0.0642867,0.0176659-0.0981479c0.0063782-0.0338612,0.0122681-0.0569263,0.0191383-0.0853887
		l0.0176659-0.0765553c0.0063782-0.0284624,0.0122681-0.0564351,0.0196304-0.0844073
		c0.0073624-0.0279727,0.0171738-0.0633063,0.0265007-0.0947127l0.0201187-0.0721393
		c0.0068703-0.0250282,0.0137405-0.0490737,0.0215912-0.0745916C39.86092,6.7912931,39.8726997,6.7569408,39.8844757,6.72259
		l0.0220871-0.065268c0.0073624-0.0225735,0.0152092-0.0456386,0.0230598-0.0677223
		c0.0142326-0.0387692,0.0294456-0.0775366,0.0451508-0.1158142l0.0220833-0.0564351
		c0.0073624-0.019629,0.015213-0.0392585,0.0230637-0.0588894c0.0181541-0.0426941,0.0377884-0.0848985,0.0569229-0.1271014
		l0.0211029-0.0490742c0.0078506-0.0171762,0.015213-0.0343523,0.0235519-0.0490742
		c0.0220871-0.0490742,0.0461311-0.0932403,0.070179-0.13937l0.0176659-0.0343528
		c0.0073624-0.0152125,0.0152092-0.0304255,0.0235519-0.0456386c0.0274811-0.0490737,0.0564384-0.1015835,0.0858803-0.1511474
		l0.0132523-0.0235562l0.0220833-0.0382776c0.0314064-0.0525093,0.0642853-0.1035457,0.0981483-0.154583l0.033371-0.0520182
		c0.0353317-0.0525098,0.0721359-0.1040368,0.1089401-0.1550746l0.0314102-0.0436764
		c0.039257-0.0534906,0.0799904-0.1050191,0.121212-0.1565466l0.0279732-0.0358243
		c0.0431824-0.0529995,0.087841-0.1050196,0.1334801-0.1560555l0.024044-0.0279727
		c0.0490723-0.0534902,0.0981483-0.1055088,0.1472206-0.156055L41.100029,4.741961
		c0.0490761-0.0525098,0.1045303-0.1035457,0.1585083-0.1540933l0.015213-0.0142322
		c0.0564384-0.0520182,0.1133614-0.1020732,0.1712685-0.1511474l0.0112877-0.0093241
		c0.0593796-0.0490742,0.1207237-0.0981483,0.1825523-0.1472225c0.0706673-0.0539818,0.1354446-0.1010923,0.2012024-0.147222
		c0.8308258-0.574657,1.8132896-0.8902028,2.8232307-0.9068894h0.0343513c0.0387688,0,0.0775414,0,0.1163063,0h0.0338631
		c1.0094528,0.0161939,1.9914246,0.3317413,2.8217583,0.9059072c0.0677223,0.0466208,0.1324997,0.0937314,0.1962967,0.1428056
		c0.0637932,0.0490742,0.1300468,0.1010923,0.1899147,0.151639l0.0107956,0.0093241
		C48.124485,4.4705801,48.1819,4.5196538,48.2373543,4.5721636l0.0112877,0.0107965
		c0.0583992,0.0544715,0.1113968,0.1055088,0.1629257,0.1580186l0.0132523,0.0132494
		c0.0564346,0.0583982,0.1055107,0.1104164,0.1531105,0.1634159l0.0245361,0.0284624
		c0.0451469,0.0490737,0.0898056,0.1030555,0.1329918,0.156055l0.0284615,0.0363145
		c0.0412178,0.0490742,0.0814629,0.1025643,0.1207199,0.1555653l0.0314064,0.0436769
		c0.0372963,0.051527,0.0736122,0.103056,0.1089439,0.1555653l0.0333748,0.0525098
		c0.033371,0.0490742,0.066246,0.1020732,0.0981483,0.1540933c0.0078506,0.0127597,0.0147247,0.0255179,0.0220795,0.0382776
		l0.0132523,0.0230651c0.0309143,0.0525093,0.0593758,0.1015835,0.0858765,0.1516385
		c0.0083466,0.015213,0.0161934,0.0304255,0.0240479,0.0456386l0.0127602,0.0255179
		c0.0284615,0.0549626,0.0525055,0.1010923,0.0750847,0.147222c0.0078545,0.016685,0.0157013,0.0338616,0.0230637,0.0490742
		l0.0211029,0.0490742c0.0196304,0.0422029,0.0387726,0.0844073,0.0569267,0.1271019
		c0.0078545,0.0191393,0.0152168,0.0382776,0.0225754,0.0579066l0.024044,0.0603619
		c0.0147247,0.0377865,0.0299339,0.0750833,0.0436783,0.1128697c0.0078506,0.0220838,0.0156975,0.0446577,0.0225716,0.06674
		l0.0225716,0.0662503c0.011776,0.0343523,0.0235558,0.0687032,0.0343475,0.1040368
		c0.0078545,0.0245371,0.0147247,0.0490742,0.0215912,0.0745921l0.0206146,0.0721388
		c0.0088348,0.0314083,0.0181541,0.0628147,0.0260086,0.0947127s0.0137444,0.0579071,0.0206146,0.0868607l0.0161934,0.0721388
		c0.0073624,0.0294447,0.0137405,0.0583982,0.0201187,0.0878429c0.006382,0.0294447,0.0117798,0.0633059,0.0171776,0.0947127
		l0.0132484,0.0745921c0.0049057,0.0274811,0.0098152,0.0544715,0.0142365,0.0819545
		c0.005394,0.036314,0.0098114,0.0731196,0.0142326,0.1099253L49.8533669,7.74578
		c0.0034332,0.0245371,0.0063782,0.0490742,0.0088348,0.0736113c0.0049057,0.0451488,0.0078545,0.0902958,0.0107956,0.1359344
		l0.0044136,0.0628152c0.0019684,0.0201206,0.0034332,0.0402412,0.0044174,0.0603609
		c0.0044136,0.0868626,0.0068703,0.1747036,0.0068703,0.2625456c0,0.087841-0.0029488,0.1859894-0.0078545,0.2777576
		c0,0.0191402,0,0.0377884-0.0039215,0.0569248v0.0299349c-0.0044174,0.0633039-0.0093231,0.1261206-0.0161934,0.1884451
		c0,0.0240459-0.0053978,0.0490742-0.0088348,0.0711584l-0.0034332,0.0274811
		c-0.0073624,0.0579071-0.0152168,0.1163054-0.0245361,0.1737213c-0.0044174,0.0269899-0.0093231,0.0534916-0.0142365,0.0804825
		l-0.0029449,0.0176659c-0.0107956,0.0579071-0.0220833,0.1153231-0.0343513,0.1722498
		c-0.0068703,0.0309172-0.0137405,0.0613432-0.0211029,0.0917692c-0.0137444,0.0598688-0.0294418,0.1192493-0.0456429,0.1781387
		L49.683567,9.7857847c-0.0191383,0.0652695-0.039753,0.1300478-0.0613441,0.1962967l-0.0191383,0.0569248
		c-0.0274849,0.0790081-0.0569267,0.1565466-0.0883369,0.233593l-0.166851-0.054472l0.1624374,0.0662489
		c-0.3332138,0.8111963-0.8681221,1.5237494-1.5536842,2.0704355c-0.0382805,0.0323877-0.0898056,0.078517-0.1442795,0.1310272
		c-0.2208328,0.2178888-0.3449898,0.515769-0.3435173,0.8264084v0.8769531
		c0.0014725,0.8357334-0.6747665,1.5139341-1.5105019,1.5154076C45.9544449,15.7046108,45.9505234,15.7046108,45.9465942,15.7046108
		z M44.7496796,3.5646684h-0.0461311h-0.0397491c-0.940258,0.0147216-1.8554916,0.3086765-2.6288986,0.8435833
		c-0.0633049,0.0436769-0.1236687,0.0873518-0.1830444,0.1329904c-0.0593834,0.0456386-0.121212,0.094223-0.1766663,0.1413336
		l-0.0107956,0.0093241c-0.0534935,0.0451488-0.1069794,0.0922599-0.1590004,0.1398616L41.4911652,4.845993
		c-0.0490761,0.0466213-0.0981483,0.094223-0.1472244,0.1432972l-0.0186462,0.0196295
		c-0.0461311,0.0490737-0.0917702,0.0981479-0.1359367,0.147222L41.1667824,5.182642
		c-0.0426941,0.0490742-0.084404,0.0981483-0.1246452,0.1472225l-0.0260124,0.0328803
		c-0.0387688,0.0490742-0.0765533,0.0981479-0.1128693,0.147222l-0.0294418,0.040731
		c-0.0343552,0.0490742-0.0687065,0.0981479-0.1015854,0.147222L40.7413101,5.746994
		c-0.0309143,0.0490742-0.0618324,0.095695-0.0912743,0.144278L40.617157,5.948689
		c-0.0269928,0.0490742-0.0544739,0.0932407-0.0799942,0.1408424l-0.0338593,0.0662503
		c-0.026989,0.0520186-0.0490761,0.0947127-0.0696831,0.137898c-0.0068741,0.0142322-0.0132523,0.0284624-0.0196304,0.0426946
		L40.3914146,6.385448c-0.018158,0.0387692-0.0358238,0.0775366-0.0525093,0.1172881
		c-0.006382,0.0157037-0.0127602,0.0323887-0.0191422,0.0490737l-0.024044,0.0603619
		c-0.0137444,0.034842-0.0279732,0.0696859-0.0407333,0.1055088c-0.0068703,0.0191398-0.0132523,0.0382776-0.0196304,0.0574174
		l-0.0235558,0.0696859c-0.0107956,0.0309167-0.0210991,0.0618339-0.0309143,0.0932403
		c-0.0068741,0.0215931-0.0127602,0.0431857-0.0186501,0.0647783l-0.0215912,0.0765553
		c-0.0078506,0.0274816-0.0161972,0.0554543-0.0235558,0.0839162c-0.0073586,0.0284624-0.0112877,0.0490742-0.0171738,0.0736113
		l-0.0186501,0.0809722c-0.0058899,0.0250282-0.011776,0.0490737-0.0166855,0.0750833
		c-0.0049095,0.0260091-0.0107956,0.0564346-0.015213,0.0844073l-0.0142326,0.0790086
		c-0.0044174,0.0235558-0.0083389,0.0490742-0.0122681,0.0706668c-0.0049057,0.0323892-0.008831,0.0652676-0.0127602,0.0981479
		L40.0002899,7.802218c0,0.0206118-0.0053978,0.0417132-0.0073624,0.0623236
		c-0.0044174,0.040731-0.0068703,0.0824442-0.0098152,0.1236658l-0.0049057,0.0691953
		c0,0.0161934-0.0029449,0.0323887-0.0039253,0.0490732c-0.0039291,0.0809727-0.0058899,0.1629248-0.0058899,0.245369
		s0.0029449,0.173233,0.0073624,0.2591133c0,0.0157032,0,0.0314074,0.003437,0.0466204v0.0343523
		c0.0044174,0.0588894,0.008831,0.1172876,0.0147209,0.1756859c0,0.021102,0.0053978,0.0417118,0.0078506,0.0628166
		l0.0039253,0.0289555c0.0068703,0.054471,0.0142326,0.1084547,0.0230637,0.1619434
		c0.0039291,0.0245371,0.0083427,0.0490742,0.0127602,0.0736113l0.0029449,0.018157
		c0.0098152,0.0534925,0.0206108,0.1069813,0.0318985,0.1604729c0.006382,0.0284643,0.0127602,0.0564365,0.0196304,0.084898
		c0.0132523,0.0559444,0.0274811,0.1113987,0.0426941,0.1663618l0.0206108,0.0736103
		c0.0176659,0.0608521,0.0372963,0.1207237,0.057415,0.1805925l0.0176659,0.0530005
		c0.0255203,0.0736113,0.0530014,0.1462402,0.081955,0.2178898l0.0044174,0.0107946
		c0.3106384,0.7557421,0.8087387,1.4197121,1.4476852,1.9291019c0.0520172,0.0441675,0.1094322,0.0952034,0.1693039,0.1531105
		c0.2900276,0.2841377,0.4534454,0.673295,0.4519768,1.0796299v0.8769531
		c0.0009804,0.6409073,0.5201836,1.1601114,1.1610909,1.1610909h2.3957939
		c0.6409073-0.0004911,1.1606026-0.5201836,1.1610909-1.1610909v-0.8833332
		c-0.0014725-0.4063349,0.1619453-0.7954922,0.4519768-1.0796299c0.06036-0.0579071,0.1172867-0.108943,0.1648865-0.1496754
		c0.6409073-0.5098801,1.1404839-1.1753244,1.4521027-1.9325371l0.0049057-0.0122681
		c0.0284615-0.0701761,0.0559464-0.1428041,0.0814667-0.2159271l0.018158-0.0534925
		c0.0196304-0.0598688,0.0392609-0.1197405,0.0569267-0.1805925l0.0206108-0.0741014
		c0.0152168-0.054472,0.0294456-0.1099262,0.0426941-0.1658707c0.0068741-0.0284643,0.0132523-0.0569248,0.0196342-0.0853891
		c0.011776-0.0530005,0.0220795-0.1064892,0.0318985-0.1604729l0.0029449-0.0176659
		c0.0044174-0.0245371,0.0093231-0.0490742,0.0132523-0.0736113c0.0083466-0.0534916,0.0157013-0.1074724,0.0225716-0.1619434
		l0.0039253-0.0289555c0.0029449-0.021101,0.0053978-0.0417118,0.0078545-0.0628157
		c0.0058861-0.0583982,0.0107918-0.1167974,0.0147247-0.1756868V8.6511955c0-0.015213,0.0029449-0.0309162,0.0034294-0.0466204
		c0.0049057-0.0858803,0.0073624-0.1722507,0.0073624-0.2591133c0-0.0819521,0-0.163908-0.0058861-0.2453699
		c0-0.0161934-0.0024567-0.0323887-0.0039253-0.0490742L49.5142937,7.981823
		c-0.0029488-0.0412216-0.0053978-0.0829349-0.0098114-0.1236658c0-0.0211015-0.0049057-0.0417132-0.0073624-0.0623236
		l-0.0098152-0.0770469c-0.0039215-0.03337-0.0078506-0.0662503-0.0127563-0.0981479
		c-0.0034332-0.0235562-0.0078545-0.0490742-0.0122719-0.0706668l-0.0142326-0.0794997
		c-0.0049057-0.0279727-0.0093193-0.0559454-0.0152168-0.0839162c-0.0058937-0.0279713-0.0112839-0.0490742-0.0171738-0.0765557
		L49.3979874,7.232954c-0.0053978-0.0255179-0.0112839-0.0490742-0.0176659-0.0760646
		c-0.0063782-0.0269899-0.0152168-0.0564346-0.0235558-0.0839162L49.3351784,6.996418
		c-0.0058899-0.0215926-0.0117798-0.0431852-0.0186501-0.0647783c-0.0093193-0.0314078-0.0201225-0.0623236-0.0309143-0.0932403
		l-0.0235558-0.0701756c-0.006382-0.0191398-0.0127602-0.0382776-0.0196304-0.0569263
		c-0.0122681-0.0343523-0.0260124-0.0687032-0.039753-0.1025643L49.1776466,6.544446l-0.0191422-0.0490737
		c-0.0166817-0.039259-0.0343475-0.0780277-0.0525055-0.1167965l-0.0225716-0.0490742l-0.0191383-0.0426941
		c-0.0211067-0.0431857-0.0431862-0.0858798-0.0652657-0.1285739l-0.0387726-0.0755749
		c-0.0250282-0.0466208-0.0490723-0.0917683-0.0780258-0.1374068l-0.0348396-0.0608511
		c-0.0294456-0.0490742-0.06036-0.0981483-0.0912781-0.1437869l-0.0309181-0.0490737
		c-0.0328789-0.0490742-0.0672302-0.0981483-0.1015816-0.1472225l-0.0289574-0.0407305
		c-0.0368042-0.0490742-0.0745926-0.0981483-0.1128693-0.1472225l-0.0260086-0.03337
		c-0.0407333-0.0490742-0.0824471-0.0981479-0.124649-0.147222L48.3080597,5.149272
		c-0.0441666-0.0490737-0.0898056-0.0981479-0.1359367-0.147222l-0.0112839-0.0117774
		c-0.0554543-0.0569258-0.1050186-0.104528-0.1550751-0.1511474l-0.0098152-0.0093241
		c-0.0569229-0.0525098-0.1099243-0.0981483-0.1643944-0.1472225l0.1025658-0.1428056l-0.1128693,0.1339726
		c-0.0554543-0.0490737-0.112381-0.0922594-0.1702881-0.1364255c-0.0657578-0.0490742-0.1261177-0.094223-0.1874619-0.1369171
		c-0.7738991-0.5353985-1.6891289-0.8293517-2.6298828-0.8445644h-0.0407295L44.7496796,3.5646684z"/>
	<path fill="#F28F06" d="M46.4672699,16.6370182h-3.4351845c-0.0966759,0.0049057-0.1791229-0.0691929-0.1840286-0.1658707
		c-0.0049057-0.096674,0.0691948-0.179121,0.1658707-0.1840267c0.006382-0.0004921,0.0122681-0.0004921,0.0186501,0h3.4351845
		c0.0966759-0.0049076,0.1791229,0.0691929,0.1840286,0.1658707c0.0049057,0.096674-0.0691948,0.179121-0.1658707,0.1840267
		C46.479538,16.6375103,46.4731598,16.6375103,46.4672699,16.6370182z"/>
	<path fill="#F28F06" d="M46.4672699,17.5389996h-3.4351845c-0.0966759,0-0.1751938-0.078516-0.1751938-0.1751938
		c0-0.096674,0.0785179-0.1751957,0.1751938-0.1751957l0,0h3.4351845c0.0966759,0,0.1751976,0.0785179,0.1751976,0.1751957
		S46.5639496,17.5389996,46.4672699,17.5389996z"/>
	<path fill="#F28F06" d="M45.1123352,19.5539818l1.6459427-1.3740749c0.0299377-0.0250282,0.0343552-0.0691929,0.0093269-0.0996208
		c-0.0132523-0.0161953-0.033371-0.0255203-0.0544739-0.0255203h-3.9313202c-0.0392609,0-0.0706673,0.0314083-0.0706673,0.0706673
		c0,0.021101,0.0093231,0.0412235,0.0255203,0.054472l1.6459427,1.374073
		C44.5941162,19.7301598,44.9008255,19.7301598,45.1123352,19.5539818z"/>
	<path fill="#F28F06" d="M42.2508278,6.0968909c-0.0824432-0.5059538,0.0490723-0.7851853,0.4907417-1.0516572
		c0.2512589-0.1521297,0.494175-0.3214345,0.7567215-0.4509907c0.1805916-0.080482,0.3709984-0.136426,0.5663109-0.1653795
		c0.2576408-0.0466208,0.4873047,0.0343528,0.6831131,0.2296662c0.3346825-0.3346853,0.7223663-0.2718706,1.1051483-0.1256294
		c0.2223053,0.0937319,0.4377403,0.2036572,0.6438522,0.3287969c0.1324997,0.0780277,0.2615623,0.1624351,0.3852272,0.2537136
		c0.2905197,0.2051296,0.4230194,0.4853435,0.385231,0.84162c-0.0044174,0.0436769-0.0122681,0.0873518-0.018158,0.1310287
		c0,0.0029445,0.0044212,0.0073609,0.0112877,0.018157c0.3503914,0.101584,0.6330566,0.3621669,0.7626114,0.7032309
		c0.0775375,0.1977687,0.0986366,0.4136944,0.0608482,0.6227503c-0.0068703,0.0569258,0.0068741,0.1143417,0.0392609,0.1619439
		c0.2885551,0.3955369,0.3297768,0.8111959,0.124157,1.2562947c-0.0220833,0.0530014-0.0220833,0.1123791,0,0.1653795
		c0.2576408,0.536871,0.1217041,1.1144733-0.3474426,1.4766397c-0.0426941,0.0372972-0.0687065,0.0902977-0.0721397,0.1472225
		c-0.0157013,0.5682783-0.2856102,0.9643068-0.7949982,1.2057505c-0.0436783,0.018157-0.0824471,0.0461302-0.1133614,0.0814619
		c-0.5839844,0.7611389-1.5644836,0.7596655-2.1415939-0.0039272c-0.0078506-0.0088329-0.0171738-0.0171747-0.0265007-0.0245371
		c-0.024044,0.0294437-0.0490723,0.057416-0.0716476,0.0868626c-0.4343033,0.567296-1.2469711,0.6752596-1.8142662,0.2404642
		c-0.0986404-0.075573-0.1855011-0.1643972-0.2586212-0.2645102c-0.0392609-0.0505476-0.0898056-0.0917683-0.1472244-0.1197414
		c-0.4990807-0.2414427-0.7709541-0.6301117-0.782238-1.1871014c0.0034332-0.0731201-0.0328789-0.1423159-0.0947151-0.1815748
		c-0.4451027-0.3312502-0.5879059-0.9343691-0.3390999-1.4300194c0.0392609-0.0672312,0.0392609-0.1496754,0-0.2169065
		c-0.2007141-0.4343042-0.1536026-0.8450556,0.1320114-1.2297959c0.0274811-0.0309167,0.0446548-0.0696859,0.0490723-0.110908
		C41.3728905,6.7299461,41.5711479,6.3918252,42.2508278,6.0968909z M43.4609909,5.0373802
		c0.0363159,0.0181575,0.0711594,0.0397501,0.1030579,0.0647783c0.1163025,0.1113977,0.2242661,0.2306485,0.3238869,0.3567681
		c0.0544701,0.0834265,0.030426,0.1948237-0.0530014,0.2492952c-0.0068703,0.0044165-0.0137444,0.0083432-0.0211029,0.0117774
		c-0.0932426,0.0505462-0.2100372,0.0171762-0.2630348-0.0745921c-0.0171738-0.0255179-0.0299339-0.0539818-0.0490761-0.0790086
		c-0.1388779-0.1938429-0.3965187-0.2605829-0.6119499-0.1585097c-0.2164154,0.1006012-0.3258514,0.3454819-0.2561646,0.5736761
		c0.0166855,0.0456386,0.0525093,0.0814633,0.0981483,0.0981483c0.5584602,0.1177773,0.918663,0.5088978,0.9741173,1.06638
		c0.015213,0.1511474-0.0490723,0.2522416-0.169796,0.2664719c-0.1334801,0.0152125-0.2046394-0.0628147-0.2198524-0.2296662
		c-0.0289536-0.317018-0.1874619-0.549139-0.482399-0.6693711c-0.2949333-0.1202321-0.5653343-0.065268-0.7964706,0.147222
		c-0.2311401,0.2124901-0.3135834,0.4882879-0.2120018,0.7925463c0.0466232,0.1398611,0.0161972,0.2286849-0.0848961,0.3258524
		c-0.2070923,0.1992407-0.2703972,0.4495168-0.203167,0.7262959c0.0750847,0.3199635,0.351368,0.5530653,0.6796761,0.573184
		c0.1825523,0.0176668,0.2669601,0.0888243,0.2566566,0.215436c-0.0103073,0.1266127-0.1040382,0.2021856-0.2861061,0.1693068
		c-0.2075806-0.0372972-0.4078026-0.1148348-0.6173515-0.176177c-0.1550713,0.2944441-0.0186462,0.7361107,0.3297768,0.9235735
		c0.1472206,0.0809736,0.1962967,0.1747036,0.1742134,0.3381214c-0.0554543,0.4132032,0.1869698,0.8082485,0.5800552,0.9461498
		c0.0996208,0.0318995,0.1845169,0.0981483,0.2394829,0.1874628c0.1933517,0.2983713,0.4755249,0.4465733,0.8288612,0.4132032
		c0.5206757-0.0490742,0.837204-0.4362688,0.834259-0.9903145c-0.0019608-0.9917879-0.0029449-1.9830818-0.003437-2.9743786
		c0-0.4274349,0-0.8548713,0-1.2823057c0-0.2316298-0.124157-0.3680558-0.3435173-0.3925929
		c-0.1472244-0.0176659-0.21838-0.095695-0.2041473-0.2188697c0.0142326-0.1231751,0.1177788-0.1884446,0.2546959-0.1673431
		c0.0937271,0.015213,0.1855011,0.0422034,0.2851181,0.065268c0-0.3435183,0.0112877-0.6816397-0.0044174-1.0187783
		c-0.0083427-0.187953-0.1629257-0.3022962-0.3538246-0.3013153C43.9316139,4.8140941,43.7029266,4.9132228,43.4609909,5.0373802z
		 M46.0020485,5.0211864c-0.188446-0.1118884-0.3989716-0.1820641-0.6168594-0.2051291
		c-0.294445-0.0255179-0.4416656,0.1187601-0.4416656,0.418602s0,0.599194,0,0.8985462v0.5466857
		c0.1133575-0.0279727,0.2277031-0.0490742,0.3435173-0.0637956c0.1025658-0.0088329,0.1928596,0.06674,0.2021828,0.1693058
		c0.0004921,0.0039253,0.0004921,0.0078521,0.0004921,0.0117774c0.0073624,0.1064916-0.0716476,0.1992407-0.1776466,0.2090559
		c-0.2767792,0.0441666-0.3705101,0.151639-0.3705101,0.4298897c0,0.9029641,0,1.8059249,0,2.7088895
		c0,0.0328789,0.003437,0.0657606,0.0039291,0.0775375c0.1864777-0.0902977,0.3670731-0.1859894,0.555027-0.2645102
		c0.0971642-0.0368052,0.2056198,0.012269,0.2419357,0.1094341c0.0009804,0.0029449,0.0024529,0.0058889,0.0034332,0.009325
		c0.0328789,0.1006012-0.0206108,0.209547-0.1202316,0.2453699c-0.0363159,0.0157042-0.0750847,0.0255194-0.1114006,0.0402412
		c-0.3690376,0.1472225-0.6114616,0.533926-0.5677872,0.9083614c0.0490761,0.4117327,0.324379,0.7302227,0.7037239,0.8102131
		c0.3925934,0.0829353,0.7557411-0.0819521,0.9814835-0.4362688c0.0328789-0.0559454,0.0834236-0.0991306,0.1437874-0.1226854
		c0.4421577-0.1285734,0.7184448-0.5663137,0.6443405-1.0207396c-0.0323868-0.1163054,0.0343513-0.2370291,0.1501656-0.2718697
		c0.0441704-0.0201187,0.0848999-0.0466213,0.1217041-0.0780287c0.2753067-0.2129831,0.3754196-0.6335449,0.2115097-0.8990374
		c-0.1962967,0.1300468-0.4102592,0.2178888-0.6517067,0.2173977c-0.1374054,0-0.2232857-0.0682144-0.2291756-0.1825542
		c-0.0058861-0.1143436,0.0711594-0.1889343,0.210041-0.2056208c0.0569229-0.002944,0.1138496-0.0103064,0.169796-0.0220842
		c0.2841377-0.0804815,0.4774895-0.2596006,0.5520821-0.5481558c0.0706673-0.276288,0.0107956-0.5285277-0.1962929-0.7277684
		c-0.1099281-0.1059999-0.1516418-0.2046394-0.0829353-0.3489156c0.0235519-0.0618339,0.0343513-0.127593,0.0323868-0.1938434
		c0.0157013-0.423018-0.3145638-0.7783141-0.737587-0.7935286c-0.4230156-0.0157037-0.7783127,0.3145652-0.7935257,0.737092l0,0
		c-0.0107956,0.1594911-0.0814629,0.2360463-0.209549,0.2272134c-0.1280823-0.0088329-0.1928596-0.1089444-0.1805916-0.2576389
		c0.0348434-0.5383425,0.4338188-0.9824624,0.9652863-1.075213c0.0500565-0.0157042,0.0902977-0.0525098,0.1104164-0.1010923
		c0.0696869-0.2335935-0.0466194-0.4819078-0.2703972-0.5780926c-0.2277031-0.1001115-0.4946671-0.013741-0.6207886,0.2007127
		c-0.087841,0.1398616-0.1962967,0.1801023-0.3013153,0.1113977c-0.1050186-0.0687051-0.1226845-0.1928611-0.0279732-0.3130932
		C45.754715,5.2670484,45.8754387,5.1409273,46.0020485,5.0211864z"/>
	<path fill="#F28F06" d="M42.9967537,8.3650932c-0.1737213-0.0981483-0.3489151-0.1742125-0.4961395-0.2870836
		c-0.2645073-0.2041483-0.3925896-0.4907408-0.4166374-0.8229718c-0.011776-0.147222,0.063797-0.2453704,0.1894264-0.2492957
		s0.191391,0.0755744,0.2021828,0.2237778c0.0230637,0.3126016,0.1751976,0.5442314,0.4622803,0.6683884
		c0.2870789,0.1241579,0.5594444,0.0770469,0.8023567-0.1236658c0.0132523-0.0107965,0.0255203-0.0240459,0.0392609-0.0348425
		c0.1074715-0.0888238,0.2115097-0.0883327,0.2915001,0c0.0799904,0.0883331,0.0618324,0.1992407-0.0343513,0.294445
		c-0.1521301,0.142314-0.3381233,0.2434063-0.5398178,0.294446c-0.0436745,0.0161953-0.0794983,0.0500565-0.0981483,0.0927505
		c-0.1324997,0.354804-0.3837585,0.5594454-0.7567215,0.6148996c-0.1565437,0.0235538-0.2649994-0.0441685-0.2782478-0.1693068
		c-0.0132523-0.1251383,0.0618324-0.2016935,0.2311401-0.2208328C42.7700272,8.6340208,42.924614,8.5260572,42.9967537,8.3650932z"
		/>
	<path fill="#F28F06" d="M42.8083076,10.1528616c0.0981483-0.5923252,0.4220352-0.9603806,0.9373131-1.0688353
		c0.081955-0.0161953,0.1658707-0.0215921,0.2492981-0.0157042c0.0947113,0.0004911,0.1707764,0.0770464,0.1707764,0.1717596
		c0,0.0039263,0,0.0073624-0.0004921,0.0112858c0.0083427,0.0976572-0.0628166,0.1835365-0.1604729,0.1933517
		c-0.1045265,0.012269-0.2080727,0.0323877-0.3096581,0.0603609c-0.2738304,0.1050186-0.4622765,0.3592224-0.4838676,0.6517048
		c-0.0107956,0.0613422,0.0220833,0.1221943,0.0794983,0.1472225c0.3626595,0.206111,0.561409,0.5211658,0.600666,0.9368248
		c0.0142326,0.1526194-0.0490723,0.2532215-0.169796,0.2659807c-0.1324997,0.0137424-0.2041473-0.0623245-0.2178879-0.2316284
		c-0.0309181-0.3862123-0.3341942-0.6978312-0.700779-0.72188c-0.1786308-0.0112867-0.2571487-0.0711584-0.2576408-0.1962967
		S42.6262436,10.1646414,42.8083076,10.1528616z"/>
	<path fill="#F28F06" d="M46.2228813,8.382762c0.0750847,0.1663618,0.2360497,0.2782488,0.4181137,0.2905178
		c0.1560555,0.0171747,0.2355537,0.09373,0.2223053,0.2164154c-0.0132446,0.1226854-0.1202316,0.1908989-0.2654877,0.1717587
		c-0.3783607-0.0490732-0.6379623-0.2492971-0.7694817-0.6119518c-0.0255203-0.0441675-0.0647774-0.0794992-0.1113968-0.1006012
		C45.546154,8.2536974,45.36409,8.1761589,45.2031288,8.0677061c-0.1271019-0.0853887-0.1329918-0.2149448-0.0490761-0.3067131
		c0.0839195-0.0917683,0.1879578-0.0839162,0.3013153,0.0152125c0.2345772,0.2051296,0.5000648,0.2713799,0.795002,0.1589994
		c0.2949371-0.11238,0.4544258-0.3327217,0.4936867-0.6428704c0-0.0220838,0.0044174-0.0441666,0.0068703-0.0657592
		c0.0161934-0.1383891,0.0898056-0.2061114,0.2129822-0.1962962c0.1123772,0.0098152,0.1747055,0.0878429,0.1707764,0.2227969
		c-0.0004921,0.3543148-0.173233,0.6860561-0.4637489,0.8892217C46.5389214,8.2394638,46.3813896,8.2998266,46.2228813,8.382762z"/>
	<path fill="#F28F06" d="M46.8677139,10.2907591c0.0804825,0.0314083,0.1639099,0.0397501,0.2021866,0.0853882
		c0.0431824,0.057416,0.0618324,0.1295567,0.0520172,0.2007151c-0.0176659,0.0981474-0.1035461,0.1295557-0.2016945,0.1339712
		c-0.3224182,0.0078497-0.6041031,0.2198505-0.7017593,0.5270548c-0.0210991,0.0716496-0.0343513,0.1452599-0.0402412,0.2193594
		c-0.0127602,0.1383896-0.0819511,0.212492-0.2026749,0.2080736c-0.1207237-0.0044174-0.1962967-0.0981483-0.188446-0.2370281
		c0.0299339-0.4097681,0.2115097-0.7361116,0.5677872-0.9422235c0.0893173-0.0387669,0.1369171-0.1374063,0.1114006-0.2316275
		c-0.0554543-0.3268328-0.3140755-0.5810385-0.6418915-0.6310921c-0.039257-0.0053978-0.0790062-0.0088329-0.1182671-0.0142307
		c-0.1285744-0.0171747-0.1962967-0.09373-0.1899147-0.2075825c0.0063782-0.1138515,0.0873528-0.176177,0.2193604-0.1771564
		c0.518219,0,1.000618,0.3955374,1.1026917,0.9088526C46.8490677,10.1891785,46.8593712,10.245121,46.8677139,10.2907591z"/>
	<path fill="#B31E1D" d="M8.7175322,10.5326967c-1.3063517,1.0074921-2.9135275,0.9240656-4.2876019,0.1040373
		C2.8899858,9.7190485,2.1519117,8.112855,2.3020782,6.3506045C2.3712728,5.5369573,2.5435226,4.647244,3.0641985,3.9921048
		c0.7429814-0.9353518,1.9845552-1.6552691,3.1849074-1.7220092c0.7253146-0.040241,1.6376014,0.1153245,2.2574077,0.5147867
		c0,0,0.7518139,0.4843607,1.2366657,1.2695458l1.9207592-0.9520366c0,0-1.971796-3.7757592-6.9665561-2.5400743
		c-2.925796,0.7243338-4.6016755,3.354213-4.5859718,6.283936c0,0.0937319,0,0.187953,0.0083425,0.2816849
		c0,0-0.0333704,5.0786748,5.4128704,5.9806571c0,0,4.2434349,0.6870365,6.0473986-2.7398062L9.8064852,9.4250946
		C9.3957348,9.9968061,8.7175322,10.5326967,8.7175322,10.5326967z"/>
</g>
</svg>
