<svg xmlns="http://www.w3.org/2000/svg" id="Capa_1" enable-background="new 0 0 512 512" height="512" viewBox="0 0 512 512" width="512"><g><g><path d="m171.15 356.43h67.35c4.142 0 7.5-3.358 7.5-7.5s-3.358-7.5-7.5-7.5h-17.427v-12.698c0-4.142-3.358-7.5-7.5-7.5s-7.5 3.358-7.5 7.5v12.698h-27.423v-36.94c0-18.146 14.759-32.91 32.9-32.91h88.9c18.141 0 32.9 14.764 32.9 32.91v36.94h-27.423v-12.698c0-4.142-3.358-7.5-7.5-7.5s-7.5 3.358-7.5 7.5v12.698h-17.427c-4.142 0-7.5 3.358-7.5 7.5s3.358 7.5 7.5 7.5h67.35c4.142 0 7.5-3.358 7.5-7.5v-44.44c0-26.418-21.488-47.91-47.9-47.91h-5.566c11.737-10.622 19.124-25.967 19.124-43.007 0-31.986-26.022-58.008-58.008-58.008s-58.008 26.022-58.008 58.008c0 17.04 7.387 32.385 19.124 43.007h-5.566c-26.412 0-47.9 21.492-47.9 47.91v44.44c0 4.142 3.358 7.5 7.5 7.5zm41.842-142.857c0-23.715 19.293-43.008 43.008-43.008s43.008 19.293 43.008 43.008c0 23.696-19.262 42.975-42.951 43.007h-.115c-23.688-.031-42.95-19.311-42.95-43.007z" style="&#10;    fill: #D03B3B;&#10;"/><path d="m504.5 232.337h-24.038c-5.332-51.218-28.197-99.259-64.869-135.931-.873-.873-1.757-1.746-2.651-2.598-3-2.857-7.747-2.741-10.604.259-2.856 3-2.741 7.747.259 10.604.806.768 1.602 1.555 2.389 2.342 33.864 33.865 55.118 78.106 60.391 125.324h-17.462c-5.223-42.607-24.655-82.536-55.19-113.072-30.534-30.536-70.46-49.969-113.063-55.191v-17.458c34.859 3.882 68.188 16.412 96.844 36.486 1.31.917 2.811 1.358 4.297 1.358 2.363 0 4.69-1.114 6.149-3.197 2.377-3.393 1.553-8.069-1.839-10.446-31.172-21.837-67.495-35.347-105.451-39.289v-24.028c0-4.142-3.358-7.5-7.5-7.5h-32.325c-4.142 0-7.5 3.358-7.5 7.5v24.038c-51.218 5.332-99.259 28.197-135.931 64.869s-59.537 84.712-64.869 135.931h-24.037c-4.142 0-7.5 3.358-7.5 7.5v32.325c0 4.142 3.358 7.5 7.5 7.5h24.038c5.332 51.218 28.197 99.259 64.869 135.931s84.712 59.537 135.931 64.869v24.037c0 4.142 3.358 7.5 7.5 7.5h32.325c4.142 0 7.5-3.358 7.5-7.5v-24.038c51.218-5.332 99.259-28.197 135.931-64.869s59.537-84.712 64.869-135.931h24.037c4.142 0 7.5-3.358 7.5-7.5v-32.325c0-4.142-3.358-7.5-7.5-7.5zm-239.837-217.337v86.016h-17.325v-86.016zm-157.65 92.013c33.865-33.865 78.106-55.118 125.324-60.391v17.462c-42.607 5.223-82.536 24.655-113.072 55.189s-49.968 70.46-55.191 113.063h-17.452c5.273-47.217 26.527-91.458 60.391-125.323zm-92.013 140.324h86.016v17.325h-86.016zm92.013 157.65c-33.864-33.865-55.118-78.106-60.391-125.324h17.451c4.247 34.744 17.806 67.541 39.436 95.234 1.479 1.894 3.686 2.884 5.916 2.884 1.614 0 3.24-.519 4.611-1.59 3.264-2.55 3.844-7.263 1.294-10.527-19.568-25.054-31.967-54.637-36.129-86h29.315c4.142 0 7.5-3.358 7.5-7.5v-32.325c0-4.142-3.358-7.5-7.5-7.5h-29.336c10.539-79.93 73.222-142.609 153.157-153.147v29.326c0 4.142 3.358 7.5 7.5 7.5h32.325c4.142 0 7.5-3.358 7.5-7.5v-29.338c79.93 10.539 142.609 73.222 153.147 153.157h-29.326c-4.142 0-7.5 3.358-7.5 7.5v32.325c0 4.142 3.358 7.5 7.5 7.5h29.326c-10.538 79.935-73.217 142.618-153.147 153.157v-29.336c0-4.142-3.358-7.5-7.5-7.5h-32.325c-4.142 0-7.5 3.358-7.5 7.5v29.331c-34.939-4.601-67.294-19.287-94.006-42.768-3.112-2.734-7.851-2.429-10.585.682s-2.429 7.85.682 10.585c29.464 25.899 65.264 41.932 103.909 46.622v17.442c-47.218-5.272-91.459-26.526-125.324-60.39zm140.324 92.013v-86.016h17.325v86.016zm157.65-92.013c-33.865 33.865-78.106 55.118-125.324 60.391v-17.452c42.604-5.223 82.529-24.656 113.063-55.191 30.534-30.536 49.967-70.464 55.19-113.072h17.462c-5.273 47.218-26.527 91.459-60.391 125.324zm92.013-140.324h-86.016v-17.325h86.016z" style="&#10;    fill: #133630;&#10;"/></g></g></svg>