<svg fill="#fe554e" xmlns="http://www.w3.org/2000/svg" viewBox="0 0 64 64" width="512" height="512"><g id="Layer_18" data-name="Layer 18"><path d="M49,40.758V18a17,17,0,0,0-34,0V40.758a7.941,7.941,0,0,0-5,7.388V62a1,1,0,0,0,1,1H53a1,1,0,0,0,1-1V48.146A7.941,7.941,0,0,0,49,40.758ZM32,3A15.017,15.017,0,0,1,47,18V40.078l-9-2.813V35.521A13,13,0,0,0,45,24V17a1,1,0,0,0-1-1H39.385a6.92,6.92,0,0,1-6.456-4.372,1,1,0,0,0-1.858,0A6.92,6.92,0,0,1,24.615,16H20a1,1,0,0,0-1,1v7a13,13,0,0,0,7,11.521v1.744l-9,2.813V18A15.017,15.017,0,0,1,32,3Zm7,49.446-4.637,2.9,7.064-14.913,1.436.449L42.1,46.247l-2.414.8A1,1,0,0,0,39,48ZM24.316,47.052l-2.414-.8-.766-5.367,1.436-.449,7.064,14.913L25,52.446V48A1,1,0,0,0,24.316,47.052ZM41,24.5,43,23v1a10.93,10.93,0,0,1-2,6.305Zm2-4L39.667,23H24.333L21,20.5V18h3.615A8.9,8.9,0,0,0,32,14.115,8.9,8.9,0,0,0,39.385,18H43ZM21,23l2,1.5v5.805A10.93,10.93,0,0,1,21,24Zm4,2H39v7.479a10.979,10.979,0,0,1-14,0Zm7,19.281,1.485,1.188L32.465,47h-.93l-1.02-1.531ZM31.847,49h.306l.782,4.691L32,55.664l-.935-1.973Zm-2.9-2.276,1,1.5-.384,2.3L28.09,47.409Zm5.488,3.8-.384-2.3,1-1.5.857.685Zm2.356-4.974L33.5,42.917l3.783-3.782,2.221.694ZM32,37a12.94,12.94,0,0,0,4-.636v1.222l-4,4-4-4V36.364A12.94,12.94,0,0,0,32,37Zm-5.28,2.135L30.5,42.917l-3.294,2.634L24.5,39.829ZM12,48.146a5.975,5.975,0,0,1,4.21-5.727l2.992-.935.808,5.658a1,1,0,0,0,.674.806L23,48.721V53a1,1,0,0,0,.47.848L31,58.554V61H19V52H17v9H12ZM52,61H47V52H45v9H33V58.554l7.531-4.705A1,1,0,0,0,41,53v-4.28l2.316-.773a1,1,0,0,0,.674-.806l.808-5.658,2.992.935A5.975,5.975,0,0,1,52,48.146Z"/><rect x="27" y="27" width="10" height="2"/><rect x="27" y="31" width="10" height="2"/></g></svg>
