<svg xmlns="http://www.w3.org/2000/svg" id="Capa_1" enable-background="new 0 0 512 512" height="512" viewBox="0 0 512 512" width="512" style="fill: #5f6162;"><g><path d="m126.96 52.19h151.972c4.143 0 7.5-3.357 7.5-7.5s-3.357-7.5-7.5-7.5h-151.972c-9.65 0-17.502 7.852-17.502 17.502v13.806c0 9.65 7.852 17.502 17.502 17.502h225.679c9.65 0 17.502-7.852 17.502-17.502v-13.806c0-9.65-7.852-17.502-17.502-17.502h-38.701c-4.143 0-7.5 3.357-7.5 7.5s3.357 7.5 7.5 7.5h38.701c1.38 0 2.502 1.122 2.502 2.502v13.806c0 1.38-1.122 2.502-2.502 2.502h-225.679c-1.38 0-2.502-1.122-2.502-2.502v-13.806c0-1.379 1.122-2.502 2.502-2.502z"/><path d="m245.3 398.47h-142.288c-4.143 0-7.5 3.357-7.5 7.5s3.357 7.5 7.5 7.5h142.288c4.143 0 7.5-3.357 7.5-7.5s-3.358-7.5-7.5-7.5z"/><path d="m190.601 454.913c0 4.143 3.357 7.5 7.5 7.5h83.396c4.143 0 7.5-3.357 7.5-7.5s-3.357-7.5-7.5-7.5h-83.396c-4.143 0-7.5 3.358-7.5 7.5z"/><path d="m464.512 415.562c-.273-9.571-4.359-18.353-11.505-24.727l-20.882-18.624v-344.708c0-15.165-12.338-27.503-27.504-27.503h-329.643c-15.166 0-27.504 12.338-27.504 27.503v379.771c0 4.143 3.357 7.5 7.5 7.5s7.5-3.357 7.5-7.5v-379.771c0-6.895 5.609-12.503 12.504-12.503h329.644c6.895 0 12.504 5.608 12.504 12.503v331.33l-20.522-18.303c.548-1.864.839-3.816.839-5.813 0-5.476-2.132-10.624-6.004-14.496l-4.314-4.313c-6.532-6.531-16.408-7.717-24.163-3.575l-15.094-12.262c13.236-19.746 20.967-43.478 20.967-68.984 0-14.599-2.539-28.613-7.186-41.636h14.939c4.143 0 7.5-3.357 7.5-7.5s-3.357-7.5-7.5-7.5h-21.433c-3.068-5.964-6.609-11.646-10.565-17.003h31.999c4.143 0 7.5-3.357 7.5-7.5s-3.357-7.5-7.5-7.5h-45.041c-6.555-6.43-13.817-12.14-21.658-17.003h66.7c4.143 0 7.5-3.357 7.5-7.5s-3.357-7.5-7.5-7.5h-101.205c-8.588-1.462-20.277-3.839-30.768-3.576-10.414 0-29.12 3.576-29.621 3.576h-89.445c-4.143 0-7.5 3.357-7.5 7.5s3.357 7.5 7.5 7.5h53.795c-7.842 4.863-15.103 10.573-21.659 17.003h-54.676c-4.143 0-7.5 3.357-7.5 7.5s3.357 7.5 7.5 7.5h41.634c-3.957 5.357-7.497 11.039-10.566 17.003h-31.068c-4.143 0-7.5 3.357-7.5 7.5s3.357 7.5 7.5 7.5h24.574c-1.963 5.501-3.552 11.178-4.729 17.003h-19.845c-4.143 0-7.5 3.357-7.5 7.5s3.357 7.5 7.5 7.5h17.759c-.245 3.179-.371 6.392-.371 9.633 0 2.475.081 4.93.225 7.369h-17.612c-4.143 0-7.5 3.357-7.5 7.5s3.357 7.5 7.5 7.5h19.41c1.063 5.818 2.532 11.496 4.377 17.003h-23.787c-4.143 0-7.5 3.357-7.5 7.5s3.357 7.5 7.5 7.5h29.938c2.908 5.948 6.277 11.632 10.062 17.003h-17.459c-4.143 0-7.5 3.357-7.5 7.5s3.357 7.5 7.5 7.5h29.886c6.163 6.361 12.997 12.068 20.39 17.003h-72.816c-4.143 0-7.5 3.357-7.5 7.5s3.357 7.5 7.5 7.5h103.058c10.911 2.825 25.316 6.135 38.548 5.839 25.506 0 49.237-7.731 68.983-20.967l12.277 15.113c-2.787 5.275-3.106 11.515-.974 17.019h-221.893c-4.143 0-7.5 3.357-7.5 7.5s3.357 7.5 7.5 7.5h235.685c2.925 1.556 6.205 2.384 9.612 2.384 1.964 0 3.883-.285 5.719-.815l50.339 56.44c3.587 4.021 7.936 7.073 12.759 9.022v35.999c0 6.895-5.609 12.503-12.504 12.503h-329.644c-6.895 0-12.504-5.608-12.504-12.503v-42.102c0-4.143-3.357-7.5-7.5-7.5s-7.5 3.357-7.5 7.5v42.102c0 15.165 12.338 27.503 27.504 27.503h329.644c15.166 0 27.504-12.338 27.504-27.503v-33.565c8.428-.481 16.261-3.977 22.312-10.028 6.769-6.772 10.347-15.773 10.074-25.344zm-91.883-90.656c1.408 0 2.816.536 3.889 1.608l4.313 4.313c1.039 1.038 1.611 2.42 1.611 3.889 0 1.017-.291 1.983-.803 2.831-.16.163-.144.249-.807 1.057 0 0 0 0-.001 0l-28.634 28.635c-1.445 1.28-4.201 2.678-8.06-.283l-4.031-4.03c-2.115-2.115-2.135-5.535-.076-7.685 1.254-1.304 27.164-27.164 28.71-28.727 1.072-1.072 2.481-1.608 3.889-1.608zm-237.23-93.82c0-60.223 48.995-109.218 109.218-109.218s109.217 48.995 109.217 109.218-48.994 109.217-109.217 109.217-109.218-48.994-109.218-109.217zm203.378 80.926 12.829 10.422-15.64 15.641-10.422-12.829c4.734-4.075 9.158-8.499 13.233-13.234zm105.052 118.286c-6.787 6.963-20.521 8.038-28.268-.807l-49.218-55.184 21.495-21.495 55.184 49.216c7.356 6.366 9.19 20.031.807 28.27z"/><path d="m244.617 133.269c-53.937 0-97.817 43.881-97.817 97.817 0 24.109 8.848 47.271 24.914 65.219 2.762 3.086 7.504 3.35 10.59.586 3.087-2.763 3.349-7.504.586-10.59-13.6-15.193-21.09-34.803-21.09-55.215 0-45.666 37.151-82.817 82.817-82.817 45.665 0 82.816 37.151 82.816 82.817 0 45.665-37.151 82.816-82.816 82.816-12.631 0-24.752-2.767-36.027-8.223-3.731-1.807-8.214-.244-10.018 3.484-1.805 3.729-.244 8.213 3.484 10.018 13.328 6.45 27.647 9.721 42.561 9.721 53.937 0 97.816-43.88 97.816-97.816s-43.879-97.817-97.816-97.817z"/><path d="m277.564 226.724c-2.929 2.93-2.929 7.678 0 10.607 2.93 2.928 7.678 2.928 10.607 0l16.038-16.039c7.961-7.691 9.179-22.876.001-31.823-8.775-8.773-23.049-8.773-31.824 0l-43.499 43.5-18.042-18.043c-8.774-8.772-23.051-8.772-31.823 0-7.961 7.692-9.179 22.876-.001 31.824l33.955 33.954c4.251 4.25 9.901 6.59 15.911 6.59s11.66-2.34 15.912-6.591l18.56-18.561c2.929-2.929 2.929-7.678-.001-10.606-2.928-2.928-7.677-2.929-10.606.001l-18.559 18.56c-1.417 1.417-3.302 2.197-5.306 2.197s-3.889-.78-5.305-2.197l-33.955-33.954c-2.133-2.234-3.401-6.831.001-10.609 2.924-2.926 7.686-2.926 10.609 0l23.346 23.346c2.93 2.928 7.678 2.928 10.607 0l48.803-48.803c2.924-2.926 7.685-2.926 10.61 0 2.133 2.234 3.401 6.83-.001 10.608z"/></g></svg>
