<svg xmlns="http://www.w3.org/2000/svg" id="Capa_1" enable-background="new 0 0 512 512" height="512" viewBox="0 0 512 512" width="512" style="&#10;    fill: #fff;&#10;"><g><path d="m497 432h-290c-8.284 0-15 6.716-15 15v25c0 14.865-4.672 28.652-12.604 40h292.604c22.091 0 40-17.909 40-40v-25c0-8.284-6.716-15-15-15z"/><circle cx="140.005" cy="225.017" r="100"/><path d="m452 402v-387c0-8.284-6.716-15-15-15h-340c-8.284 0-15 6.716-15 15v93.674c37.707-18.756 83.798-18.871 123.003 3.763 4.053 2.34 7.927 4.869 11.628 7.562h160.369c8.284 0 15 6.716 15 15s-6.716 15-15 15h-130.801c6.576 9.322 11.856 19.419 15.756 30h115.045c8.284 0 15 6.716 15 15s-6.716 15-15 15h-107.865c1.16 9.904 1.182 19.971.023 30h107.842c8.284 0 15 6.716 15 15s-6.716 15-15 15h-115.018c-2.522 6.814-5.643 13.51-9.398 20.014-1.997 3.458-4.136 6.783-6.392 9.986h130.808c8.284 0 15 6.716 15 15s-6.716 15-15 15h-160.291c-23.861 17.413-53.035 26.172-82.413 24.905l-52.296 90.58v26.516c0 22.091 17.909 40 40 40 22.091 0 40-17.909 40-40v-25c0-24.853 20.147-45 45-45zm-135-312h-100c-8.284 0-15-6.716-15-15s6.716-15 15-15h100c8.284 0 15 6.716 15 15s-6.716 15-15 15z"/><path d="m75.004 337.6c-8.94-5.161-17.029-11.236-24.23-18.031l-46.75 80.973c-8.284 14.349-3.368 32.697 10.981 40.981s32.697 3.368 40.981-10.981l46.734-80.946c-9.559-2.88-18.854-6.879-27.716-11.996z"/></g></svg>
