<svg xmlns="http://www.w3.org/2000/svg" id="Capa_1" enable-background="new 0 0 512 512" height="512" viewBox="0 0 512 512" width="512" style="&#10;    fill: #5f6162;&#10;"><g><path d="m7.5 169.063c4.142 0 7.5-3.357 7.5-7.5v-124.063c0-12.406 10.093-22.5 22.5-22.5h32.687c4.142 0 7.5-3.357 7.5-7.5s-3.358-7.5-7.5-7.5h-32.687c-20.678 0-37.5 16.822-37.5 37.5v124.063c0 4.143 3.358 7.5 7.5 7.5z"/><path d="m504.5 295.638c4.142 0 7.5-3.357 7.5-7.5v-53.638c0-20.678-16.822-37.5-37.5-37.5-10.159 0-46.644 0-55.5 0v-55.5c0-26.191-21.309-47.5-47.5-47.5h-56.5v-14.411-42.089c0-20.678-16.822-37.5-37.5-37.5h-170.996c-4.142 0-7.5 3.357-7.5 7.5s3.358 7.5 7.5 7.5h170.996c12.407 0 22.5 10.094 22.5 22.5v30.678l-39.505 46.476c-3.411 3.967-3.411 9.725 0 13.692l39.505 45.673v22.981c-43.752 0-199.863 0-246.183 0-4.142 0-7.5 3.357-7.5 7.5s3.358 7.5 7.5 7.5h150.703c-3.674 4.883-6.181 10.688-7.113 17h-143.59c-4.142 0-7.5 3.357-7.5 7.5s3.358 7.5 7.5 7.5h143.183v56h-23.693l-45.459-39.502c-3.968-3.416-9.729-3.414-13.694-.002l-45.585 39.504h-31.069c-12.407 0-22.5-10.094-22.5-22.5v-80.937c0-4.143-3.358-7.5-7.5-7.5s-7.5 3.357-7.5 7.5v80.937c0 20.678 16.822 37.5 37.5 37.5h55.5v55.5c0 26.191 21.309 47.5 47.5 47.5h56.5v56.5c0 20.678 16.822 37.5 37.5 37.5h240c20.678 0 37.5-16.822 37.5-37.5v-151.362c0-4.143-3.358-7.5-7.5-7.5s-7.5 3.357-7.5 7.5v151.362c0 12.406-10.093 22.5-22.5 22.5h-240c-12.407 0-22.5-10.094-22.5-22.5v-32.593c1.292-.617 2.474-1.503 3.461-2.65l36.044-41.912c3.411-3.967 3.411-9.725 0-13.692l-36.044-41.911c-.987-1.147-2.169-2.033-3.46-2.651v-104.591c0-12.406 10.093-22.5 22.5-22.5h103.179l46.473 39.502c1.984 1.708 4.417 2.562 6.849 2.562s4.863-.854 6.846-2.56l46.23-39.504h30.422c12.407 0 22.5 10.094 22.5 22.5v53.638c0 4.142 3.358 7.5 7.5 7.5zm-307.5 67.362h-49v-48h49zm-105.776-63 29.776-25.607 29.776 25.607h-10.276c-4.142 0-7.5 3.357-7.5 7.5v55.5h-25v-55.5c0-4.143-3.358-7.5-7.5-7.5zm146.384 90.5-25.608 29.777v-9.777c0-4.143-3.358-7.5-7.5-7.5h-64c-15.339 0-28.221-10.685-31.617-25h95.617c4.142 0 7.5-3.357 7.5-7.5v-9.777zm36.784-269 25.608-29.777v9.777c0 4.143 3.358 7.5 7.5 7.5h64c15.339 0 28.221 10.685 31.617 25h-95.617c-4.142 0-7.5 3.357-7.5 7.5v9.777zm40.608 27.5h49v48c-10.241 0-38.676 0-49 0zm76 88.607-29.776-25.607h10.276c4.142 0 7.5-3.357 7.5-7.5v-55.5h25v55.5c0 4.143 3.358 7.5 7.5 7.5h9.276z"/><path d="m83.817 183.333h176.366c4.142 0 7.5-3.357 7.5-7.5s-3.358-7.5-7.5-7.5h-176.366c-4.142 0-7.5 3.357-7.5 7.5s3.358 7.5 7.5 7.5z"/><path d="m54.683 122.667h118.12c4.142 0 7.5-3.357 7.5-7.5s-3.358-7.5-7.5-7.5h-118.12c-4.142 0-7.5 3.357-7.5 7.5s3.358 7.5 7.5 7.5z"/><path d="m240.183 107.667h-32.38c-4.142 0-7.5 3.357-7.5 7.5s3.358 7.5 7.5 7.5h32.38c4.142 0 7.5-3.357 7.5-7.5s-3.358-7.5-7.5-7.5z"/><path d="m54.683 153h47c4.142 0 7.5-3.357 7.5-7.5s-3.358-7.5-7.5-7.5h-47c-4.142 0-7.5 3.357-7.5 7.5s3.358 7.5 7.5 7.5z"/><path d="m84.683 62h175.5c4.142 0 7.5-3.357 7.5-7.5s-3.358-7.5-7.5-7.5h-175.5c-4.142 0-7.5 3.357-7.5 7.5s3.358 7.5 7.5 7.5z"/><path d="m267.683 84.833c0-4.143-3.358-7.5-7.5-7.5h-205.5c-4.142 0-7.5 3.357-7.5 7.5s3.358 7.5 7.5 7.5h205.5c4.142 0 7.5-3.357 7.5-7.5z"/><path d="m347 307.375v94c0 4.143 3.358 7.5 7.5 7.5s7.5-3.357 7.5-7.5v-94c0-4.143-3.358-7.5-7.5-7.5s-7.5 3.357-7.5 7.5z"/><path d="m435.5 337.875v34c0 4.143 3.358 7.5 7.5 7.5s7.5-3.357 7.5-7.5v-34c0-4.143-3.358-7.5-7.5-7.5s-7.5 3.357-7.5 7.5z"/><path d="m406 314.375v80c0 4.143 3.358 7.5 7.5 7.5s7.5-3.357 7.5-7.5v-80c0-4.143-3.358-7.5-7.5-7.5s-7.5 3.357-7.5 7.5z"/><path d="m384 263.375c-4.142 0-7.5 3.357-7.5 7.5v167.25c0 4.143 3.358 7.5 7.5 7.5s7.5-3.357 7.5-7.5v-167.25c0-4.143-3.358-7.5-7.5-7.5z"/><path d="m332.5 270.875c0-4.143-3.358-7.5-7.5-7.5s-7.5 3.357-7.5 7.5v93.534c0 4.143 3.358 7.5 7.5 7.5s7.5-3.357 7.5-7.5z"/><path d="m325 391.909c-4.142 0-7.5 3.357-7.5 7.5v38.216c0 4.143 3.358 7.5 7.5 7.5s7.5-3.357 7.5-7.5v-38.216c0-4.142-3.358-7.5-7.5-7.5z"/><path d="m258.5 337.875v34c0 4.143 3.358 7.5 7.5 7.5s7.5-3.357 7.5-7.5v-34c0-4.143-3.358-7.5-7.5-7.5s-7.5 3.357-7.5 7.5z"/><path d="m288 314.375v80c0 4.143 3.358 7.5 7.5 7.5s7.5-3.357 7.5-7.5v-80c0-4.143-3.358-7.5-7.5-7.5s-7.5 3.357-7.5 7.5z"/></g></svg>
